%TF.GenerationSoftware,KiCad,Pcbnew,8.0.6*%
%TF.CreationDate,2024-11-25T20:06:59+00:00*%
%TF.ProjectId,stp16cp05_led_matrix_8x16_breakout_m0805,73747031-3663-4703-9035-5f6c65645f6d,v02*%
%TF.SameCoordinates,Original*%
%TF.FileFunction,Drillmap*%
%TF.FilePolarity,Positive*%
%FSLAX45Y45*%
G04 Gerber Fmt 4.5, Leading zero omitted, Abs format (unit mm)*
G04 Created by KiCad (PCBNEW 8.0.6) date 2024-11-25 20:06:59*
%MOMM*%
%LPD*%
G01*
G04 APERTURE LIST*
%ADD10C,0.050000*%
%ADD11C,0.200000*%
G04 APERTURE END LIST*
D10*
X13900000Y-4200000D02*
X24000000Y-4200000D01*
X24000000Y-12500000D01*
X13900000Y-12500000D01*
X13900000Y-4200000D01*
D11*
X14158277Y-12813984D02*
X14158277Y-12613984D01*
X14158277Y-12613984D02*
X14205896Y-12613984D01*
X14205896Y-12613984D02*
X14234467Y-12623508D01*
X14234467Y-12623508D02*
X14253515Y-12642555D01*
X14253515Y-12642555D02*
X14263039Y-12661603D01*
X14263039Y-12661603D02*
X14272562Y-12699698D01*
X14272562Y-12699698D02*
X14272562Y-12728269D01*
X14272562Y-12728269D02*
X14263039Y-12766365D01*
X14263039Y-12766365D02*
X14253515Y-12785412D01*
X14253515Y-12785412D02*
X14234467Y-12804460D01*
X14234467Y-12804460D02*
X14205896Y-12813984D01*
X14205896Y-12813984D02*
X14158277Y-12813984D01*
X14358277Y-12813984D02*
X14358277Y-12680650D01*
X14358277Y-12718746D02*
X14367801Y-12699698D01*
X14367801Y-12699698D02*
X14377324Y-12690174D01*
X14377324Y-12690174D02*
X14396372Y-12680650D01*
X14396372Y-12680650D02*
X14415420Y-12680650D01*
X14482086Y-12813984D02*
X14482086Y-12680650D01*
X14482086Y-12613984D02*
X14472562Y-12623508D01*
X14472562Y-12623508D02*
X14482086Y-12633031D01*
X14482086Y-12633031D02*
X14491610Y-12623508D01*
X14491610Y-12623508D02*
X14482086Y-12613984D01*
X14482086Y-12613984D02*
X14482086Y-12633031D01*
X14605896Y-12813984D02*
X14586848Y-12804460D01*
X14586848Y-12804460D02*
X14577324Y-12785412D01*
X14577324Y-12785412D02*
X14577324Y-12613984D01*
X14710658Y-12813984D02*
X14691610Y-12804460D01*
X14691610Y-12804460D02*
X14682086Y-12785412D01*
X14682086Y-12785412D02*
X14682086Y-12613984D01*
X14939229Y-12813984D02*
X14939229Y-12613984D01*
X14939229Y-12613984D02*
X15005896Y-12756841D01*
X15005896Y-12756841D02*
X15072562Y-12613984D01*
X15072562Y-12613984D02*
X15072562Y-12813984D01*
X15253515Y-12813984D02*
X15253515Y-12709222D01*
X15253515Y-12709222D02*
X15243991Y-12690174D01*
X15243991Y-12690174D02*
X15224943Y-12680650D01*
X15224943Y-12680650D02*
X15186848Y-12680650D01*
X15186848Y-12680650D02*
X15167801Y-12690174D01*
X15253515Y-12804460D02*
X15234467Y-12813984D01*
X15234467Y-12813984D02*
X15186848Y-12813984D01*
X15186848Y-12813984D02*
X15167801Y-12804460D01*
X15167801Y-12804460D02*
X15158277Y-12785412D01*
X15158277Y-12785412D02*
X15158277Y-12766365D01*
X15158277Y-12766365D02*
X15167801Y-12747317D01*
X15167801Y-12747317D02*
X15186848Y-12737793D01*
X15186848Y-12737793D02*
X15234467Y-12737793D01*
X15234467Y-12737793D02*
X15253515Y-12728269D01*
X15348753Y-12680650D02*
X15348753Y-12880650D01*
X15348753Y-12690174D02*
X15367801Y-12680650D01*
X15367801Y-12680650D02*
X15405896Y-12680650D01*
X15405896Y-12680650D02*
X15424943Y-12690174D01*
X15424943Y-12690174D02*
X15434467Y-12699698D01*
X15434467Y-12699698D02*
X15443991Y-12718746D01*
X15443991Y-12718746D02*
X15443991Y-12775888D01*
X15443991Y-12775888D02*
X15434467Y-12794936D01*
X15434467Y-12794936D02*
X15424943Y-12804460D01*
X15424943Y-12804460D02*
X15405896Y-12813984D01*
X15405896Y-12813984D02*
X15367801Y-12813984D01*
X15367801Y-12813984D02*
X15348753Y-12804460D01*
X15529705Y-12794936D02*
X15539229Y-12804460D01*
X15539229Y-12804460D02*
X15529705Y-12813984D01*
X15529705Y-12813984D02*
X15520182Y-12804460D01*
X15520182Y-12804460D02*
X15529705Y-12794936D01*
X15529705Y-12794936D02*
X15529705Y-12813984D01*
X15529705Y-12690174D02*
X15539229Y-12699698D01*
X15539229Y-12699698D02*
X15529705Y-12709222D01*
X15529705Y-12709222D02*
X15520182Y-12699698D01*
X15520182Y-12699698D02*
X15529705Y-12690174D01*
X15529705Y-12690174D02*
X15529705Y-12709222D01*
M02*
