M48
; DRILL file {KiCad 8.0.6} date 2024-11-26T09:23:35+0000
; FORMAT={-:-/ absolute / inch / decimal}
; #@! TF.CreationDate,2024-11-26T09:23:35+00:00
; #@! TF.GenerationSoftware,Kicad,Pcbnew,8.0.6
; #@! TF.FileFunction,Plated,1,2,PTH
FMAT,2
INCH
; #@! TA.AperFunction,Plated,PTH,ViaDrill
T1C0.0118
; #@! TA.AperFunction,Plated,PTH,ComponentDrill
T2C0.0315
; #@! TA.AperFunction,Plated,PTH,ComponentDrill
T3C0.0394
; #@! TA.AperFunction,Plated,PTH,ComponentDrill
T4C0.1260
%
G90
G05
T1
X6.1201Y-3.2776
X6.187Y-3.3524
X6.2047Y-1.9685
X6.2047Y-2.0472
X6.2047Y-2.126
X6.2047Y-2.2047
X6.2047Y-2.2835
X6.2047Y-2.3622
X6.2047Y-2.4409
X6.2047Y-2.5197
X6.2185Y-2.9272
X6.2638Y-2.872
X6.2857Y-3.3121
X6.2913Y-2.998
X6.3248Y-2.8209
X6.3366Y-2.9429
X6.3571Y-3.3819
X6.379Y-1.9685
X6.379Y-2.0472
X6.379Y-2.126
X6.379Y-2.2047
X6.379Y-2.2835
X6.379Y-2.3622
X6.379Y-2.4409
X6.379Y-2.5197
X6.3976Y-2.8917
X6.4173Y-2.7461
X6.4213Y-3.5472
X6.4882Y-2.8169
X6.4921Y-2.6634
X6.5366Y-1.9685
X6.5366Y-2.0472
X6.5366Y-2.126
X6.5366Y-2.2047
X6.5366Y-2.2835
X6.5366Y-2.3622
X6.5366Y-2.4409
X6.5366Y-2.5197
X6.565Y-2.7343
X6.5748Y-3.2205
X6.5945Y-3.9961
X6.654Y-3.418
X6.6831Y-2.6634
X6.6942Y-1.9685
X6.6942Y-2.0472
X6.6942Y-2.126
X6.6942Y-2.2047
X6.6942Y-2.2835
X6.6942Y-2.3622
X6.6942Y-2.4409
X6.6942Y-2.5197
X6.7008Y-3.5472
X6.7244Y-3.0787
X6.741Y-3.446
X6.748Y-4.1181
X6.7598Y-2.7421
X6.8031Y-3.9134
X6.8051Y-3.374
X6.811Y-3.2165
X6.8346Y-3.9567
X6.8366Y-2.6575
X6.8518Y-1.9685
X6.8518Y-2.0472
X6.8518Y-2.126
X6.8518Y-2.2047
X6.8518Y-2.2835
X6.8518Y-2.3622
X6.8518Y-2.4409
X6.8518Y-2.5197
X6.8602Y-3.2441
X6.8898Y-4.1181
X6.8917Y-3.8681
X6.9173Y-2.7421
X6.934Y-3.412
X6.9665Y-4.065
X6.9764Y-3.5472
X7.0093Y-1.9685
X7.0093Y-2.0472
X7.0093Y-2.126
X7.0093Y-2.2047
X7.0093Y-2.2835
X7.0093Y-2.3622
X7.0093Y-2.4409
X7.0093Y-2.5197
X7.0157Y-2.7008
X7.044Y-3.546
X7.0551Y-2.937
X7.0551Y-4.1181
X7.1024Y-2.7559
X7.1043Y-3.872
X7.1575Y-3.189
X7.1669Y-1.9685
X7.1669Y-2.0472
X7.1669Y-2.126
X7.1669Y-2.2047
X7.1669Y-2.2835
X7.1669Y-2.3622
X7.1669Y-2.4409
X7.1669Y-2.5197
X7.2047Y-4.4567
X7.212Y-3.41
X7.2126Y-4.1181
X7.2205Y-2.9843
X7.2362Y-4.0472
X7.252Y-3.5472
X7.2953Y-4.1024
X7.3071Y-3.9961
X7.315Y-3.437
X7.3245Y-1.9685
X7.3245Y-2.0472
X7.3245Y-2.126
X7.3245Y-2.2047
X7.3245Y-2.2835
X7.3245Y-2.3622
X7.3245Y-2.4409
X7.3245Y-2.5197
X7.3386Y-3.0709
X7.3937Y-4.8071
X7.4173Y-3.7638
X7.4567Y-3.8189
X7.4606Y-4.5039
X7.473Y-3.408
X7.4812Y-1.9687
X7.4812Y-2.0472
X7.4812Y-2.1262
X7.4812Y-2.2047
X7.4812Y-2.2837
X7.4812Y-2.3622
X7.4812Y-2.4411
X7.4812Y-2.5197
X7.5197Y-2.9685
X7.5276Y-3.5472
X7.583Y-3.43
X7.6142Y-4.5748
X7.6378Y-4.1654
X7.6388Y-1.9685
X7.6388Y-2.0472
X7.6388Y-2.126
X7.6388Y-2.2047
X7.6388Y-2.2835
X7.6388Y-2.3622
X7.6388Y-2.4409
X7.6388Y-2.5197
X7.6457Y-3.189
X7.6535Y-3.9843
X7.6579Y-4.6059
X7.6614Y-4.8425
X7.7087Y-3.0079
X7.75Y-3.411
X7.7756Y-3.9016
X7.7964Y-1.9685
X7.7964Y-2.0472
X7.7964Y-2.126
X7.7964Y-2.2047
X7.7964Y-2.2835
X7.7964Y-2.3622
X7.7964Y-2.4409
X7.7964Y-2.5197
X7.7992Y-3.5472
X7.9173Y-4.4567
X7.9291Y-3.1496
X7.9539Y-1.9685
X7.9539Y-2.0472
X7.9539Y-2.126
X7.9539Y-2.2047
X7.9539Y-2.2835
X7.9539Y-2.3622
X7.9539Y-2.4409
X7.9539Y-2.5197
X8.026Y-3.411
X8.0709Y-3.5472
X8.1115Y-1.9685
X8.1115Y-2.0472
X8.1115Y-2.126
X8.1115Y-2.2047
X8.1115Y-2.2835
X8.1115Y-2.3622
X8.1115Y-2.4409
X8.1115Y-2.5197
X8.2205Y-3.2913
X8.2691Y-1.9685
X8.2691Y-2.0472
X8.2691Y-2.126
X8.2691Y-2.2047
X8.2691Y-2.2835
X8.2691Y-2.3622
X8.2691Y-2.4409
X8.2691Y-2.5197
X8.301Y-3.405
X8.311Y-2.9882
X8.311Y-3.0984
X8.3465Y-3.5472
X8.4267Y-1.9685
X8.4267Y-2.0472
X8.4267Y-2.126
X8.4267Y-2.2047
X8.4267Y-2.2835
X8.4267Y-2.3622
X8.4267Y-2.4409
X8.4267Y-2.5197
X8.5843Y-1.9685
X8.5843Y-2.0472
X8.5843Y-2.126
X8.5843Y-2.2047
X8.5843Y-2.2835
X8.5843Y-2.3622
X8.5843Y-2.4409
X8.5843Y-2.5197
T2
X6.1583Y-4.2898
X6.1583Y-4.4898
X6.3583Y-4.3898
T3
X6.5787Y-4.2638
X6.5787Y-4.3638
X7.1441Y-4.2677
X7.2441Y-4.2677
X7.3441Y-4.2677
X7.4441Y-4.2677
X7.5441Y-4.2677
X7.6441Y-4.2677
X7.7441Y-4.2677
X7.8441Y-4.2677
X7.9441Y-4.2677
X8.0441Y-4.2677
T4
X5.7087Y-1.8898
X5.7087Y-4.685
X9.2126Y-1.8898
X9.2126Y-4.685
M30
