%TF.GenerationSoftware,KiCad,Pcbnew,8.0.6*%
%TF.CreationDate,2024-11-25T20:07:05+00:00*%
%TF.ProjectId,stp16cp05_led_matrix_8x16_breakout_m0805,73747031-3663-4703-9035-5f6c65645f6d,v02*%
%TF.SameCoordinates,Original*%
%TF.FileFunction,Copper,L1,Top*%
%TF.FilePolarity,Positive*%
%FSLAX46Y46*%
G04 Gerber Fmt 4.6, Leading zero omitted, Abs format (unit mm)*
G04 Created by KiCad (PCBNEW 8.0.6) date 2024-11-25 20:07:05*
%MOMM*%
%LPD*%
G01*
G04 APERTURE LIST*
G04 Aperture macros list*
%AMRoundRect*
0 Rectangle with rounded corners*
0 $1 Rounding radius*
0 $2 $3 $4 $5 $6 $7 $8 $9 X,Y pos of 4 corners*
0 Add a 4 corners polygon primitive as box body*
4,1,4,$2,$3,$4,$5,$6,$7,$8,$9,$2,$3,0*
0 Add four circle primitives for the rounded corners*
1,1,$1+$1,$2,$3*
1,1,$1+$1,$4,$5*
1,1,$1+$1,$6,$7*
1,1,$1+$1,$8,$9*
0 Add four rect primitives between the rounded corners*
20,1,$1+$1,$2,$3,$4,$5,0*
20,1,$1+$1,$4,$5,$6,$7,0*
20,1,$1+$1,$6,$7,$8,$9,0*
20,1,$1+$1,$8,$9,$2,$3,0*%
G04 Aperture macros list end*
%TA.AperFunction,SMDPad,CuDef*%
%ADD10RoundRect,0.237500X0.287500X0.237500X-0.287500X0.237500X-0.287500X-0.237500X0.287500X-0.237500X0*%
%TD*%
%TA.AperFunction,SMDPad,CuDef*%
%ADD11RoundRect,0.150000X-0.150000X0.587500X-0.150000X-0.587500X0.150000X-0.587500X0.150000X0.587500X0*%
%TD*%
%TA.AperFunction,SMDPad,CuDef*%
%ADD12RoundRect,0.200000X-0.275000X0.200000X-0.275000X-0.200000X0.275000X-0.200000X0.275000X0.200000X0*%
%TD*%
%TA.AperFunction,SMDPad,CuDef*%
%ADD13R,1.000000X2.510000*%
%TD*%
%TA.AperFunction,SMDPad,CuDef*%
%ADD14RoundRect,0.200000X0.200000X0.275000X-0.200000X0.275000X-0.200000X-0.275000X0.200000X-0.275000X0*%
%TD*%
%TA.AperFunction,ComponentPad*%
%ADD15C,6.400000*%
%TD*%
%TA.AperFunction,SMDPad,CuDef*%
%ADD16RoundRect,0.200000X-0.200000X-0.275000X0.200000X-0.275000X0.200000X0.275000X-0.200000X0.275000X0*%
%TD*%
%TA.AperFunction,SMDPad,CuDef*%
%ADD17RoundRect,0.100000X0.675000X0.100000X-0.675000X0.100000X-0.675000X-0.100000X0.675000X-0.100000X0*%
%TD*%
%TA.AperFunction,HeatsinkPad*%
%ADD18R,3.200000X5.000000*%
%TD*%
%TA.AperFunction,ComponentPad*%
%ADD19R,1.700000X1.700000*%
%TD*%
%TA.AperFunction,ComponentPad*%
%ADD20O,1.700000X1.700000*%
%TD*%
%TA.AperFunction,SMDPad,CuDef*%
%ADD21RoundRect,0.200000X0.275000X-0.200000X0.275000X0.200000X-0.275000X0.200000X-0.275000X-0.200000X0*%
%TD*%
%TA.AperFunction,SMDPad,CuDef*%
%ADD22RoundRect,0.100000X0.100000X-0.675000X0.100000X0.675000X-0.100000X0.675000X-0.100000X-0.675000X0*%
%TD*%
%TA.AperFunction,HeatsinkPad*%
%ADD23R,5.000000X3.200000*%
%TD*%
%TA.AperFunction,ComponentPad*%
%ADD24C,1.440000*%
%TD*%
%TA.AperFunction,SMDPad,CuDef*%
%ADD25RoundRect,0.225000X-0.250000X0.225000X-0.250000X-0.225000X0.250000X-0.225000X0.250000X0.225000X0*%
%TD*%
%TA.AperFunction,SMDPad,CuDef*%
%ADD26RoundRect,0.225000X0.225000X0.250000X-0.225000X0.250000X-0.225000X-0.250000X0.225000X-0.250000X0*%
%TD*%
%TA.AperFunction,ViaPad*%
%ADD27C,0.600000*%
%TD*%
%TA.AperFunction,Conductor*%
%ADD28C,0.500000*%
%TD*%
%TA.AperFunction,Conductor*%
%ADD29C,0.200000*%
%TD*%
G04 APERTURE END LIST*
D10*
%TO.P,D701,1,K*%
%TO.N,/COL1*%
X160874999Y-52000000D03*
%TO.P,D701,2,A*%
%TO.N,/ROW7*%
X159125001Y-52000000D03*
%TD*%
D11*
%TO.P,Q4,1,G*%
%TO.N,Net-(Q4-G)*%
X184419999Y-83662501D03*
%TO.P,Q4,2,S*%
%TO.N,VCC*%
X182519999Y-83662501D03*
%TO.P,Q4,3,D*%
%TO.N,/ROW4*%
X183469999Y-85537502D03*
%TD*%
D12*
%TO.P,R26,1*%
%TO.N,/REXT2*%
X223800000Y-104175000D03*
%TO.P,R26,2*%
%TO.N,Net-(JP1-B)*%
X223800000Y-105825000D03*
%TD*%
D10*
%TO.P,D206,1,K*%
%TO.N,/COL6*%
X180874999Y-62000000D03*
%TO.P,D206,2,A*%
%TO.N,/ROW2*%
X179125001Y-62000000D03*
%TD*%
%TO.P,D408,1,K*%
%TO.N,/COL8*%
X188874999Y-58000000D03*
%TO.P,D408,2,A*%
%TO.N,/ROW4*%
X187125001Y-58000000D03*
%TD*%
%TO.P,D302,1,K*%
%TO.N,/COL2*%
X164874999Y-60000000D03*
%TO.P,D302,2,A*%
%TO.N,/ROW3*%
X163125001Y-60000000D03*
%TD*%
%TO.P,D212,1,K*%
%TO.N,/COL12*%
X204874999Y-62000000D03*
%TO.P,D212,2,A*%
%TO.N,/ROW2*%
X203125001Y-62000000D03*
%TD*%
D13*
%TO.P,J2,1,Pin_1*%
%TO.N,VCC*%
X204669999Y-112290000D03*
%TO.P,J2,2,Pin_2*%
%TO.N,/MISO*%
X202129999Y-115600000D03*
%TO.P,J2,3,Pin_3*%
%TO.N,GND*%
X199589999Y-112290000D03*
%TO.P,J2,4,Pin_4*%
%TO.N,/OE*%
X197049999Y-115600000D03*
%TO.P,J2,5,Pin_5*%
%TO.N,/LE*%
X194509999Y-112290000D03*
%TO.P,J2,6,Pin_6*%
%TO.N,GND*%
X191969999Y-115600000D03*
%TO.P,J2,7,Pin_7*%
%TO.N,/SCK*%
X189429999Y-112290000D03*
%TO.P,J2,8,Pin_8*%
%TO.N,/MOSI*%
X186889999Y-115600000D03*
%TO.P,J2,9,Pin_9*%
%TO.N,GND*%
X184349999Y-112290000D03*
%TO.P,J2,10,Pin_10*%
%TO.N,+3V3*%
X181809999Y-115600000D03*
%TD*%
D10*
%TO.P,D406,1,K*%
%TO.N,/COL6*%
X180874999Y-58000000D03*
%TO.P,D406,2,A*%
%TO.N,/ROW4*%
X179125001Y-58000000D03*
%TD*%
%TO.P,D312,1,K*%
%TO.N,/COL12*%
X204874999Y-60000000D03*
%TO.P,D312,2,A*%
%TO.N,/ROW3*%
X203125001Y-60000000D03*
%TD*%
%TO.P,D511,1,K*%
%TO.N,/COL11*%
X200874999Y-56000000D03*
%TO.P,D511,2,A*%
%TO.N,/ROW5*%
X199125001Y-56000000D03*
%TD*%
%TO.P,D115,1,K*%
%TO.N,/COL15*%
X216874999Y-64000000D03*
%TO.P,D115,2,A*%
%TO.N,/ROW1*%
X215125001Y-64000000D03*
%TD*%
%TO.P,D215,1,K*%
%TO.N,/COL15*%
X216874999Y-62000000D03*
%TO.P,D215,2,A*%
%TO.N,/ROW2*%
X215125001Y-62000000D03*
%TD*%
%TO.P,D401,1,K*%
%TO.N,/COL1*%
X160874999Y-58000000D03*
%TO.P,D401,2,A*%
%TO.N,/ROW4*%
X159125001Y-58000000D03*
%TD*%
%TO.P,D311,1,K*%
%TO.N,/COL11*%
X200874999Y-60000000D03*
%TO.P,D311,2,A*%
%TO.N,/ROW3*%
X199125001Y-60000000D03*
%TD*%
%TO.P,D810,1,K*%
%TO.N,/COL10*%
X196874999Y-50000000D03*
%TO.P,D810,2,A*%
%TO.N,/ROW8*%
X195125001Y-50000000D03*
%TD*%
%TO.P,D214,1,K*%
%TO.N,/COL14*%
X212874999Y-62000000D03*
%TO.P,D214,2,A*%
%TO.N,/ROW2*%
X211125001Y-62000000D03*
%TD*%
%TO.P,D605,1,K*%
%TO.N,/COL5*%
X176874999Y-54000000D03*
%TO.P,D605,2,A*%
%TO.N,/ROW6*%
X175125001Y-54000000D03*
%TD*%
D14*
%TO.P,R12,1*%
%TO.N,/~{OUT12}*%
X185300000Y-91800000D03*
%TO.P,R12,2*%
%TO.N,Net-(Q4-G)*%
X183650000Y-91800000D03*
%TD*%
D10*
%TO.P,D107,1,K*%
%TO.N,/COL7*%
X184874999Y-64000000D03*
%TO.P,D107,2,A*%
%TO.N,/ROW1*%
X183125001Y-64000000D03*
%TD*%
%TO.P,D501,1,K*%
%TO.N,/COL1*%
X160874999Y-56000000D03*
%TO.P,D501,2,A*%
%TO.N,/ROW5*%
X159125001Y-56000000D03*
%TD*%
%TO.P,D313,1,K*%
%TO.N,/COL13*%
X208874999Y-60000000D03*
%TO.P,D313,2,A*%
%TO.N,/ROW3*%
X207125001Y-60000000D03*
%TD*%
%TO.P,D813,1,K*%
%TO.N,/COL13*%
X208874999Y-50000000D03*
%TO.P,D813,2,A*%
%TO.N,/ROW8*%
X207125001Y-50000000D03*
%TD*%
%TO.P,D304,1,K*%
%TO.N,/COL4*%
X172874999Y-60000000D03*
%TO.P,D304,2,A*%
%TO.N,/ROW3*%
X171125001Y-60000000D03*
%TD*%
%TO.P,D516,1,K*%
%TO.N,/COL16*%
X220874999Y-56000000D03*
%TO.P,D516,2,A*%
%TO.N,/ROW5*%
X219125001Y-56000000D03*
%TD*%
%TO.P,D404,1,K*%
%TO.N,/COL4*%
X172874999Y-58000000D03*
%TO.P,D404,2,A*%
%TO.N,/ROW4*%
X171125001Y-58000000D03*
%TD*%
%TO.P,D414,1,K*%
%TO.N,/COL14*%
X212874999Y-58000000D03*
%TO.P,D414,2,A*%
%TO.N,/ROW4*%
X211125001Y-58000000D03*
%TD*%
%TO.P,D207,1,K*%
%TO.N,/COL7*%
X184874999Y-62000000D03*
%TO.P,D207,2,A*%
%TO.N,/ROW2*%
X183125001Y-62000000D03*
%TD*%
D14*
%TO.P,R6,1*%
%TO.N,/~{OUT14}*%
X171300000Y-91800000D03*
%TO.P,R6,2*%
%TO.N,Net-(Q2-G)*%
X169650000Y-91800000D03*
%TD*%
D10*
%TO.P,D610,1,K*%
%TO.N,/COL10*%
X196874999Y-54000000D03*
%TO.P,D610,2,A*%
%TO.N,/ROW6*%
X195125001Y-54000000D03*
%TD*%
%TO.P,D305,1,K*%
%TO.N,/COL5*%
X176874999Y-60000000D03*
%TO.P,D305,2,A*%
%TO.N,/ROW3*%
X175125001Y-60000000D03*
%TD*%
%TO.P,D715,1,K*%
%TO.N,/COL15*%
X216874999Y-52000000D03*
%TO.P,D715,2,A*%
%TO.N,/ROW7*%
X215125001Y-52000000D03*
%TD*%
%TO.P,D804,1,K*%
%TO.N,/COL4*%
X172874999Y-50000000D03*
%TO.P,D804,2,A*%
%TO.N,/ROW8*%
X171125001Y-50000000D03*
%TD*%
%TO.P,D210,1,K*%
%TO.N,/COL10*%
X196874999Y-62000000D03*
%TO.P,D210,2,A*%
%TO.N,/ROW2*%
X195125001Y-62000000D03*
%TD*%
%TO.P,D505,1,K*%
%TO.N,/COL5*%
X176874999Y-56000000D03*
%TO.P,D505,2,A*%
%TO.N,/ROW5*%
X175125001Y-56000000D03*
%TD*%
D14*
%TO.P,R2,1*%
%TO.N,Net-(Q1-G)*%
X161294999Y-88600001D03*
%TO.P,R2,2*%
%TO.N,VCC*%
X159644999Y-88600001D03*
%TD*%
D11*
%TO.P,Q1,1,G*%
%TO.N,Net-(Q1-G)*%
X163419999Y-83662501D03*
%TO.P,Q1,2,S*%
%TO.N,VCC*%
X161519999Y-83662501D03*
%TO.P,Q1,3,D*%
%TO.N,/ROW1*%
X162469999Y-85537502D03*
%TD*%
D15*
%TO.P,H2,1,1*%
%TO.N,GND*%
X234000000Y-48000000D03*
%TD*%
D10*
%TO.P,D510,1,K*%
%TO.N,/COL10*%
X196874999Y-56000000D03*
%TO.P,D510,2,A*%
%TO.N,/ROW5*%
X195125001Y-56000000D03*
%TD*%
%TO.P,D101,1,K*%
%TO.N,/COL1*%
X160874999Y-64000000D03*
%TO.P,D101,2,A*%
%TO.N,/ROW1*%
X159125001Y-64000000D03*
%TD*%
D16*
%TO.P,R7,1*%
%TO.N,GND*%
X177144999Y-88600001D03*
%TO.P,R7,2*%
%TO.N,/ROW3*%
X178794999Y-88600001D03*
%TD*%
D11*
%TO.P,Q8,1,G*%
%TO.N,Net-(Q8-G)*%
X212419999Y-83662501D03*
%TO.P,Q8,2,S*%
%TO.N,VCC*%
X210519999Y-83662501D03*
%TO.P,Q8,3,D*%
%TO.N,/ROW8*%
X211469999Y-85537502D03*
%TD*%
D10*
%TO.P,D405,1,K*%
%TO.N,/COL5*%
X176874999Y-58000000D03*
%TO.P,D405,2,A*%
%TO.N,/ROW4*%
X175125001Y-58000000D03*
%TD*%
%TO.P,D316,1,K*%
%TO.N,/COL16*%
X220874999Y-60000000D03*
%TO.P,D316,2,A*%
%TO.N,/ROW3*%
X219125001Y-60000000D03*
%TD*%
D17*
%TO.P,U2,1,GND*%
%TO.N,GND*%
X193700000Y-76000000D03*
%TO.P,U2,2,SDI*%
%TO.N,/MOSI*%
X193700000Y-75350000D03*
%TO.P,U2,3,CLK*%
%TO.N,/SCK*%
X193700000Y-74700000D03*
%TO.P,U2,4,LE/DM1*%
%TO.N,/LE*%
X193700000Y-74050000D03*
%TO.P,U2,5,~{OUT0}*%
%TO.N,/COL16*%
X193700000Y-73400000D03*
%TO.P,U2,6,~{OUT1}*%
%TO.N,/COL15*%
X193700000Y-72750000D03*
%TO.P,U2,7,~{OUT2}*%
%TO.N,/COL14*%
X193700000Y-72100000D03*
%TO.P,U2,8,~{OUT3}*%
%TO.N,/COL13*%
X193700000Y-71450000D03*
%TO.P,U2,9,~{OUT4}*%
%TO.N,/COL12*%
X193700000Y-70800000D03*
%TO.P,U2,10,~{OUT5}*%
%TO.N,/COL11*%
X193700000Y-70150000D03*
%TO.P,U2,11,~{OUT6}*%
%TO.N,/COL10*%
X193700000Y-69500000D03*
%TO.P,U2,12,~{OUT7}*%
%TO.N,/COL9*%
X193700000Y-68850000D03*
%TO.P,U2,13,~{OUT8}*%
%TO.N,/COL8*%
X187950000Y-68850000D03*
%TO.P,U2,14,~{OUT9}*%
%TO.N,/COL7*%
X187950000Y-69500000D03*
%TO.P,U2,15,~{OUT10}*%
%TO.N,/COL6*%
X187950000Y-70150000D03*
%TO.P,U2,16,~{OUT11}*%
%TO.N,/COL5*%
X187950000Y-70800000D03*
%TO.P,U2,17,~{OUT12}*%
%TO.N,/COL4*%
X187950000Y-71450000D03*
%TO.P,U2,18,~{OUT13}*%
%TO.N,/COL3*%
X187950000Y-72100000D03*
%TO.P,U2,19,~{OUT14}*%
%TO.N,/COL2*%
X187950000Y-72750000D03*
%TO.P,U2,20,~{OUT15}*%
%TO.N,/COL1*%
X187950000Y-73400000D03*
%TO.P,U2,21,~{OE/DM2}*%
%TO.N,/OE*%
X187950000Y-74050000D03*
%TO.P,U2,22,SDO*%
%TO.N,Net-(U1-SDI)*%
X187950000Y-74700000D03*
%TO.P,U2,23,R-EXT*%
%TO.N,/REXT2*%
X187950000Y-75350000D03*
%TO.P,U2,24,VDD*%
%TO.N,+3V3*%
X187950000Y-76000000D03*
D18*
%TO.P,U2,25,GND*%
%TO.N,GND*%
X190825000Y-72425000D03*
%TD*%
D14*
%TO.P,R23,1*%
%TO.N,Net-(Q8-G)*%
X210294999Y-88600000D03*
%TO.P,R23,2*%
%TO.N,VCC*%
X208644999Y-88600000D03*
%TD*%
%TO.P,R15,1*%
%TO.N,/~{OUT11}*%
X192300000Y-91800000D03*
%TO.P,R15,2*%
%TO.N,Net-(Q5-G)*%
X190650000Y-91800000D03*
%TD*%
D10*
%TO.P,D716,1,K*%
%TO.N,/COL16*%
X220874999Y-52000000D03*
%TO.P,D716,2,A*%
%TO.N,/ROW7*%
X219125001Y-52000000D03*
%TD*%
%TO.P,D713,1,K*%
%TO.N,/COL13*%
X208874999Y-52000000D03*
%TO.P,D713,2,A*%
%TO.N,/ROW7*%
X207125001Y-52000000D03*
%TD*%
%TO.P,D209,1,K*%
%TO.N,/COL9*%
X192874999Y-62000000D03*
%TO.P,D209,2,A*%
%TO.N,/ROW2*%
X191125001Y-62000000D03*
%TD*%
%TO.P,D606,1,K*%
%TO.N,/COL6*%
X180874999Y-54000000D03*
%TO.P,D606,2,A*%
%TO.N,/ROW6*%
X179125001Y-54000000D03*
%TD*%
%TO.P,D416,1,K*%
%TO.N,/COL16*%
X220874999Y-58000000D03*
%TO.P,D416,2,A*%
%TO.N,/ROW4*%
X219125001Y-58000000D03*
%TD*%
%TO.P,D208,1,K*%
%TO.N,/COL8*%
X188874999Y-62000000D03*
%TO.P,D208,2,A*%
%TO.N,/ROW2*%
X187125001Y-62000000D03*
%TD*%
D11*
%TO.P,Q3,1,G*%
%TO.N,Net-(Q3-G)*%
X177419999Y-83662501D03*
%TO.P,Q3,2,S*%
%TO.N,VCC*%
X175519999Y-83662501D03*
%TO.P,Q3,3,D*%
%TO.N,/ROW3*%
X176469999Y-85537502D03*
%TD*%
D10*
%TO.P,D504,1,K*%
%TO.N,/COL4*%
X172874999Y-56000000D03*
%TO.P,D504,2,A*%
%TO.N,/ROW5*%
X171125001Y-56000000D03*
%TD*%
D14*
%TO.P,R18,1*%
%TO.N,/~{OUT10}*%
X199300000Y-91800000D03*
%TO.P,R18,2*%
%TO.N,Net-(Q6-G)*%
X197650000Y-91800000D03*
%TD*%
D10*
%TO.P,D310,1,K*%
%TO.N,/COL10*%
X196874999Y-60000000D03*
%TO.P,D310,2,A*%
%TO.N,/ROW3*%
X195125001Y-60000000D03*
%TD*%
%TO.P,D509,1,K*%
%TO.N,/COL9*%
X192874999Y-56000000D03*
%TO.P,D509,2,A*%
%TO.N,/ROW5*%
X191125001Y-56000000D03*
%TD*%
%TO.P,D410,1,K*%
%TO.N,/COL10*%
X196874999Y-58000000D03*
%TO.P,D410,2,A*%
%TO.N,/ROW4*%
X195125001Y-58000000D03*
%TD*%
D14*
%TO.P,R21,1*%
%TO.N,/~{OUT9}*%
X206300000Y-91800000D03*
%TO.P,R21,2*%
%TO.N,Net-(Q7-G)*%
X204650000Y-91800000D03*
%TD*%
D16*
%TO.P,R13,1*%
%TO.N,GND*%
X191144999Y-88600001D03*
%TO.P,R13,2*%
%TO.N,/ROW5*%
X192794999Y-88600001D03*
%TD*%
D10*
%TO.P,D604,1,K*%
%TO.N,/COL4*%
X172874999Y-54000000D03*
%TO.P,D604,2,A*%
%TO.N,/ROW6*%
X171125001Y-54000000D03*
%TD*%
%TO.P,D602,1,K*%
%TO.N,/COL2*%
X164874999Y-54000000D03*
%TO.P,D602,2,A*%
%TO.N,/ROW6*%
X163125001Y-54000000D03*
%TD*%
%TO.P,D612,1,K*%
%TO.N,/COL12*%
X204874999Y-54000000D03*
%TO.P,D612,2,A*%
%TO.N,/ROW6*%
X203125001Y-54000000D03*
%TD*%
%TO.P,D603,1,K*%
%TO.N,/COL3*%
X168874999Y-54000000D03*
%TO.P,D603,2,A*%
%TO.N,/ROW6*%
X167125001Y-54000000D03*
%TD*%
D14*
%TO.P,R17,1*%
%TO.N,Net-(Q6-G)*%
X196295000Y-88600001D03*
%TO.P,R17,2*%
%TO.N,VCC*%
X194645000Y-88600001D03*
%TD*%
D15*
%TO.P,H4,1,1*%
%TO.N,GND*%
X234000000Y-119000000D03*
%TD*%
D14*
%TO.P,R9,1*%
%TO.N,/~{OUT13}*%
X178300000Y-91800000D03*
%TO.P,R9,2*%
%TO.N,Net-(Q3-G)*%
X176650000Y-91800000D03*
%TD*%
D10*
%TO.P,D211,1,K*%
%TO.N,/COL11*%
X200874999Y-62000000D03*
%TO.P,D211,2,A*%
%TO.N,/ROW2*%
X199125001Y-62000000D03*
%TD*%
%TO.P,D201,1,K*%
%TO.N,/COL1*%
X160874999Y-62000000D03*
%TO.P,D201,2,A*%
%TO.N,/ROW2*%
X159125001Y-62000000D03*
%TD*%
%TO.P,D816,1,K*%
%TO.N,/COL16*%
X220874999Y-50000000D03*
%TO.P,D816,2,A*%
%TO.N,/ROW8*%
X219125001Y-50000000D03*
%TD*%
%TO.P,D507,1,K*%
%TO.N,/COL7*%
X184874999Y-56000000D03*
%TO.P,D507,2,A*%
%TO.N,/ROW5*%
X183125001Y-56000000D03*
%TD*%
%TO.P,D508,1,K*%
%TO.N,/COL8*%
X188919999Y-56000000D03*
%TO.P,D508,2,A*%
%TO.N,/ROW5*%
X187170001Y-56000000D03*
%TD*%
%TO.P,D512,1,K*%
%TO.N,/COL12*%
X204874999Y-56000000D03*
%TO.P,D512,2,A*%
%TO.N,/ROW5*%
X203125001Y-56000000D03*
%TD*%
%TO.P,D802,1,K*%
%TO.N,/COL2*%
X164874999Y-50000000D03*
%TO.P,D802,2,A*%
%TO.N,/ROW8*%
X163125001Y-50000000D03*
%TD*%
%TO.P,D105,1,K*%
%TO.N,/COL5*%
X176874999Y-64000000D03*
%TO.P,D105,2,A*%
%TO.N,/ROW1*%
X175125001Y-64000000D03*
%TD*%
D14*
%TO.P,R24,1*%
%TO.N,/~{OUT8}*%
X213300000Y-91800000D03*
%TO.P,R24,2*%
%TO.N,Net-(Q8-G)*%
X211650000Y-91800000D03*
%TD*%
D19*
%TO.P,J1,1,Pin_1*%
%TO.N,VCC*%
X204320000Y-108400000D03*
D20*
%TO.P,J1,2,Pin_2*%
%TO.N,/MISO*%
X201780000Y-108400000D03*
%TO.P,J1,3,Pin_3*%
%TO.N,GND*%
X199240001Y-108400000D03*
%TO.P,J1,4,Pin_4*%
%TO.N,/OE*%
X196700000Y-108400000D03*
%TO.P,J1,5,Pin_5*%
%TO.N,/LE*%
X194160000Y-108400000D03*
%TO.P,J1,6,Pin_6*%
%TO.N,GND*%
X191620000Y-108400000D03*
%TO.P,J1,7,Pin_7*%
%TO.N,/SCK*%
X189080000Y-108400000D03*
%TO.P,J1,8,Pin_8*%
%TO.N,/MOSI*%
X186539999Y-108400000D03*
%TO.P,J1,9,Pin_9*%
%TO.N,GND*%
X184000000Y-108400000D03*
%TO.P,J1,10,Pin_10*%
%TO.N,+3V3*%
X181460000Y-108400000D03*
%TD*%
D11*
%TO.P,Q6,1,G*%
%TO.N,Net-(Q6-G)*%
X198419999Y-83662501D03*
%TO.P,Q6,2,S*%
%TO.N,VCC*%
X196519999Y-83662501D03*
%TO.P,Q6,3,D*%
%TO.N,/ROW6*%
X197469999Y-85537502D03*
%TD*%
D10*
%TO.P,D710,1,K*%
%TO.N,/COL10*%
X196874999Y-52000000D03*
%TO.P,D710,2,A*%
%TO.N,/ROW7*%
X195125001Y-52000000D03*
%TD*%
%TO.P,D712,1,K*%
%TO.N,/COL12*%
X204874999Y-52000000D03*
%TO.P,D712,2,A*%
%TO.N,/ROW7*%
X203125001Y-52000000D03*
%TD*%
%TO.P,D102,1,K*%
%TO.N,/COL2*%
X164874999Y-64000000D03*
%TO.P,D102,2,A*%
%TO.N,/ROW1*%
X163125001Y-64000000D03*
%TD*%
%TO.P,D709,1,K*%
%TO.N,/COL9*%
X192874999Y-52000000D03*
%TO.P,D709,2,A*%
%TO.N,/ROW7*%
X191125001Y-52000000D03*
%TD*%
D16*
%TO.P,R10,1*%
%TO.N,GND*%
X184144999Y-88600000D03*
%TO.P,R10,2*%
%TO.N,/ROW4*%
X185794999Y-88600000D03*
%TD*%
D10*
%TO.P,D811,1,K*%
%TO.N,/COL11*%
X200874999Y-50000000D03*
%TO.P,D811,2,A*%
%TO.N,/ROW8*%
X199125001Y-50000000D03*
%TD*%
%TO.P,D711,1,K*%
%TO.N,/COL11*%
X200874999Y-52000000D03*
%TO.P,D711,2,A*%
%TO.N,/ROW7*%
X199125001Y-52000000D03*
%TD*%
%TO.P,D106,1,K*%
%TO.N,/COL6*%
X180874999Y-64000000D03*
%TO.P,D106,2,A*%
%TO.N,/ROW1*%
X179125001Y-64000000D03*
%TD*%
%TO.P,D616,1,K*%
%TO.N,/COL16*%
X220874999Y-54000000D03*
%TO.P,D616,2,A*%
%TO.N,/ROW6*%
X219125001Y-54000000D03*
%TD*%
%TO.P,D705,1,K*%
%TO.N,/COL5*%
X176874999Y-52000000D03*
%TO.P,D705,2,A*%
%TO.N,/ROW7*%
X175125001Y-52000000D03*
%TD*%
%TO.P,D614,1,K*%
%TO.N,/COL14*%
X212874999Y-54000000D03*
%TO.P,D614,2,A*%
%TO.N,/ROW6*%
X211125001Y-54000000D03*
%TD*%
%TO.P,D608,1,K*%
%TO.N,/COL8*%
X188874999Y-54000000D03*
%TO.P,D608,2,A*%
%TO.N,/ROW6*%
X187125001Y-54000000D03*
%TD*%
%TO.P,D306,1,K*%
%TO.N,/COL6*%
X180874999Y-60000000D03*
%TO.P,D306,2,A*%
%TO.N,/ROW3*%
X179125001Y-60000000D03*
%TD*%
%TO.P,D613,1,K*%
%TO.N,/COL13*%
X208874999Y-54000000D03*
%TO.P,D613,2,A*%
%TO.N,/ROW6*%
X207125001Y-54000000D03*
%TD*%
%TO.P,D812,1,K*%
%TO.N,/COL12*%
X204874999Y-50000000D03*
%TO.P,D812,2,A*%
%TO.N,/ROW8*%
X203125001Y-50000000D03*
%TD*%
%TO.P,D213,1,K*%
%TO.N,/COL13*%
X208874999Y-62000000D03*
%TO.P,D213,2,A*%
%TO.N,/ROW2*%
X207125001Y-62000000D03*
%TD*%
%TO.P,D112,1,K*%
%TO.N,/COL12*%
X204874999Y-64000000D03*
%TO.P,D112,2,A*%
%TO.N,/ROW1*%
X203125001Y-64000000D03*
%TD*%
%TO.P,D111,1,K*%
%TO.N,/COL11*%
X200874999Y-64000000D03*
%TO.P,D111,2,A*%
%TO.N,/ROW1*%
X199125001Y-64000000D03*
%TD*%
%TO.P,D502,1,K*%
%TO.N,/COL2*%
X164874999Y-56000000D03*
%TO.P,D502,2,A*%
%TO.N,/ROW5*%
X163125001Y-56000000D03*
%TD*%
%TO.P,D815,1,K*%
%TO.N,/COL15*%
X216874999Y-50000000D03*
%TO.P,D815,2,A*%
%TO.N,/ROW8*%
X215125001Y-50000000D03*
%TD*%
%TO.P,D411,1,K*%
%TO.N,/COL11*%
X200874999Y-58000000D03*
%TO.P,D411,2,A*%
%TO.N,/ROW4*%
X199125001Y-58000000D03*
%TD*%
D21*
%TO.P,R25,1*%
%TO.N,Net-(JP1-B)*%
X167800000Y-117100000D03*
%TO.P,R25,2*%
%TO.N,/REXT1*%
X167800000Y-115450000D03*
%TD*%
D10*
%TO.P,D506,1,K*%
%TO.N,/COL6*%
X180874999Y-56000000D03*
%TO.P,D506,2,A*%
%TO.N,/ROW5*%
X179125001Y-56000000D03*
%TD*%
D14*
%TO.P,R11,1*%
%TO.N,Net-(Q4-G)*%
X182294999Y-88600001D03*
%TO.P,R11,2*%
%TO.N,VCC*%
X180644999Y-88600001D03*
%TD*%
%TO.P,R14,1*%
%TO.N,Net-(Q5-G)*%
X189294999Y-88600001D03*
%TO.P,R14,2*%
%TO.N,VCC*%
X187644999Y-88600001D03*
%TD*%
D10*
%TO.P,D314,1,K*%
%TO.N,/COL14*%
X212874999Y-60000000D03*
%TO.P,D314,2,A*%
%TO.N,/ROW3*%
X211125001Y-60000000D03*
%TD*%
%TO.P,D611,1,K*%
%TO.N,/COL11*%
X200874999Y-54000000D03*
%TO.P,D611,2,A*%
%TO.N,/ROW6*%
X199125001Y-54000000D03*
%TD*%
%TO.P,D702,1,K*%
%TO.N,/COL2*%
X164874999Y-52000000D03*
%TO.P,D702,2,A*%
%TO.N,/ROW7*%
X163125001Y-52000000D03*
%TD*%
%TO.P,D415,1,K*%
%TO.N,/COL15*%
X216874999Y-58000000D03*
%TO.P,D415,2,A*%
%TO.N,/ROW4*%
X215125001Y-58000000D03*
%TD*%
D14*
%TO.P,R20,1*%
%TO.N,Net-(Q7-G)*%
X203294999Y-88600001D03*
%TO.P,R20,2*%
%TO.N,VCC*%
X201644999Y-88600001D03*
%TD*%
D10*
%TO.P,D714,1,K*%
%TO.N,/COL14*%
X212874999Y-52000000D03*
%TO.P,D714,2,A*%
%TO.N,/ROW7*%
X211125001Y-52000000D03*
%TD*%
%TO.P,D307,1,K*%
%TO.N,/COL7*%
X184874999Y-60000000D03*
%TO.P,D307,2,A*%
%TO.N,/ROW3*%
X183125001Y-60000000D03*
%TD*%
%TO.P,D615,1,K*%
%TO.N,/COL15*%
X216874999Y-54000000D03*
%TO.P,D615,2,A*%
%TO.N,/ROW6*%
X215125001Y-54000000D03*
%TD*%
D22*
%TO.P,U1,1,GND*%
%TO.N,GND*%
X187694999Y-104075000D03*
%TO.P,U1,2,SDI*%
%TO.N,Net-(U1-SDI)*%
X188344999Y-104075000D03*
%TO.P,U1,3,CLK*%
%TO.N,/SCK*%
X188994999Y-104075000D03*
%TO.P,U1,4,LE/DM1*%
%TO.N,/LE*%
X189644998Y-104075000D03*
%TO.P,U1,5,~{OUT0}*%
%TO.N,unconnected-(U1-~{OUT0}-Pad5)*%
X190294999Y-104075000D03*
%TO.P,U1,6,~{OUT1}*%
%TO.N,unconnected-(U1-~{OUT1}-Pad6)*%
X190944999Y-104075000D03*
%TO.P,U1,7,~{OUT2}*%
%TO.N,unconnected-(U1-~{OUT2}-Pad7)*%
X191594999Y-104075000D03*
%TO.P,U1,8,~{OUT3}*%
%TO.N,unconnected-(U1-~{OUT3}-Pad8)*%
X192244999Y-104075000D03*
%TO.P,U1,9,~{OUT4}*%
%TO.N,unconnected-(U1-~{OUT4}-Pad9)*%
X192895000Y-104075000D03*
%TO.P,U1,10,~{OUT5}*%
%TO.N,unconnected-(U1-~{OUT5}-Pad10)*%
X193544999Y-104075000D03*
%TO.P,U1,11,~{OUT6}*%
%TO.N,unconnected-(U1-~{OUT6}-Pad11)*%
X194194999Y-104075000D03*
%TO.P,U1,12,~{OUT7}*%
%TO.N,unconnected-(U1-~{OUT7}-Pad12)*%
X194844999Y-104075000D03*
%TO.P,U1,13,~{OUT8}*%
%TO.N,/~{OUT8}*%
X194844999Y-98325000D03*
%TO.P,U1,14,~{OUT9}*%
%TO.N,/~{OUT9}*%
X194194999Y-98325000D03*
%TO.P,U1,15,~{OUT10}*%
%TO.N,/~{OUT10}*%
X193544999Y-98325000D03*
%TO.P,U1,16,~{OUT11}*%
%TO.N,/~{OUT11}*%
X192895000Y-98325000D03*
%TO.P,U1,17,~{OUT12}*%
%TO.N,/~{OUT12}*%
X192244999Y-98325000D03*
%TO.P,U1,18,~{OUT13}*%
%TO.N,/~{OUT13}*%
X191594999Y-98325000D03*
%TO.P,U1,19,~{OUT14}*%
%TO.N,/~{OUT14}*%
X190944999Y-98325000D03*
%TO.P,U1,20,~{OUT15}*%
%TO.N,/~{OUT15}*%
X190294999Y-98325000D03*
%TO.P,U1,21,~{OE/DM2}*%
%TO.N,/OE*%
X189644998Y-98325000D03*
%TO.P,U1,22,SDO*%
%TO.N,/MISO*%
X188994999Y-98325000D03*
%TO.P,U1,23,R-EXT*%
%TO.N,/REXT1*%
X188344999Y-98325000D03*
%TO.P,U1,24,VDD*%
%TO.N,+3V3*%
X187694999Y-98325000D03*
D23*
%TO.P,U1,25,GND*%
%TO.N,GND*%
X191269999Y-101200000D03*
%TD*%
D10*
%TO.P,D203,1,K*%
%TO.N,/COL3*%
X168874999Y-62000000D03*
%TO.P,D203,2,A*%
%TO.N,/ROW2*%
X167125001Y-62000000D03*
%TD*%
D14*
%TO.P,R8,1*%
%TO.N,Net-(Q3-G)*%
X175294999Y-88600001D03*
%TO.P,R8,2*%
%TO.N,VCC*%
X173644999Y-88600001D03*
%TD*%
D10*
%TO.P,D108,1,K*%
%TO.N,/COL8*%
X188874999Y-64000000D03*
%TO.P,D108,2,A*%
%TO.N,/ROW1*%
X187125001Y-64000000D03*
%TD*%
D16*
%TO.P,R22,1*%
%TO.N,GND*%
X212144999Y-88600001D03*
%TO.P,R22,2*%
%TO.N,/ROW8*%
X213794999Y-88600001D03*
%TD*%
D10*
%TO.P,D315,1,K*%
%TO.N,/COL15*%
X216874999Y-60000000D03*
%TO.P,D315,2,A*%
%TO.N,/ROW3*%
X215125001Y-60000000D03*
%TD*%
%TO.P,D303,1,K*%
%TO.N,/COL3*%
X168874999Y-60000000D03*
%TO.P,D303,2,A*%
%TO.N,/ROW3*%
X167125001Y-60000000D03*
%TD*%
D14*
%TO.P,R3,1*%
%TO.N,/~{OUT15}*%
X164300000Y-91800000D03*
%TO.P,R3,2*%
%TO.N,Net-(Q1-G)*%
X162650000Y-91800000D03*
%TD*%
D10*
%TO.P,D409,1,K*%
%TO.N,/COL9*%
X192874999Y-58000000D03*
%TO.P,D409,2,A*%
%TO.N,/ROW4*%
X191125001Y-58000000D03*
%TD*%
%TO.P,D805,1,K*%
%TO.N,/COL5*%
X176874999Y-50000000D03*
%TO.P,D805,2,A*%
%TO.N,/ROW8*%
X175125001Y-50000000D03*
%TD*%
%TO.P,D301,1,K*%
%TO.N,/COL1*%
X160874999Y-60000000D03*
%TO.P,D301,2,A*%
%TO.N,/ROW3*%
X159125001Y-60000000D03*
%TD*%
%TO.P,D109,1,K*%
%TO.N,/COL9*%
X192874999Y-64000000D03*
%TO.P,D109,2,A*%
%TO.N,/ROW1*%
X191125001Y-64000000D03*
%TD*%
D14*
%TO.P,R5,1*%
%TO.N,Net-(Q2-G)*%
X168294999Y-88600001D03*
%TO.P,R5,2*%
%TO.N,VCC*%
X166644999Y-88600001D03*
%TD*%
D10*
%TO.P,D707,1,K*%
%TO.N,/COL7*%
X184874999Y-52000000D03*
%TO.P,D707,2,A*%
%TO.N,/ROW7*%
X183125001Y-52000000D03*
%TD*%
D24*
%TO.P,RV1,1,1*%
%TO.N,GND*%
X156420000Y-114040000D03*
%TO.P,RV1,2,2*%
%TO.N,Net-(JP1-B)*%
X161500000Y-111500000D03*
%TO.P,RV1,3,3*%
%TO.N,unconnected-(RV1-Pad3)*%
X156420000Y-108960000D03*
%TD*%
D10*
%TO.P,D308,1,K*%
%TO.N,/COL8*%
X188874999Y-60000000D03*
%TO.P,D308,2,A*%
%TO.N,/ROW3*%
X187125001Y-60000000D03*
%TD*%
%TO.P,D808,1,K*%
%TO.N,/COL8*%
X188874999Y-50000000D03*
%TO.P,D808,2,A*%
%TO.N,/ROW8*%
X187125001Y-50000000D03*
%TD*%
D16*
%TO.P,R1,1*%
%TO.N,GND*%
X163144999Y-88600001D03*
%TO.P,R1,2*%
%TO.N,/ROW1*%
X164794999Y-88600001D03*
%TD*%
D10*
%TO.P,D609,1,K*%
%TO.N,/COL9*%
X192874999Y-54000000D03*
%TO.P,D609,2,A*%
%TO.N,/ROW6*%
X191125001Y-54000000D03*
%TD*%
%TO.P,D514,1,K*%
%TO.N,/COL14*%
X212874999Y-56000000D03*
%TO.P,D514,2,A*%
%TO.N,/ROW5*%
X211125001Y-56000000D03*
%TD*%
%TO.P,D807,1,K*%
%TO.N,/COL7*%
X184874999Y-50000000D03*
%TO.P,D807,2,A*%
%TO.N,/ROW8*%
X183125001Y-50000000D03*
%TD*%
%TO.P,D607,1,K*%
%TO.N,/COL7*%
X184874999Y-54000000D03*
%TO.P,D607,2,A*%
%TO.N,/ROW6*%
X183125001Y-54000000D03*
%TD*%
%TO.P,D205,1,K*%
%TO.N,/COL5*%
X176874999Y-62000000D03*
%TO.P,D205,2,A*%
%TO.N,/ROW2*%
X175125001Y-62000000D03*
%TD*%
%TO.P,D202,1,K*%
%TO.N,/COL2*%
X164874999Y-62000000D03*
%TO.P,D202,2,A*%
%TO.N,/ROW2*%
X163125001Y-62000000D03*
%TD*%
%TO.P,D402,1,K*%
%TO.N,/COL2*%
X164874999Y-58000000D03*
%TO.P,D402,2,A*%
%TO.N,/ROW4*%
X163125001Y-58000000D03*
%TD*%
D16*
%TO.P,R19,1*%
%TO.N,GND*%
X205144999Y-88600001D03*
%TO.P,R19,2*%
%TO.N,/ROW7*%
X206794999Y-88600001D03*
%TD*%
D10*
%TO.P,D114,1,K*%
%TO.N,/COL14*%
X212874999Y-64000000D03*
%TO.P,D114,2,A*%
%TO.N,/ROW1*%
X211125001Y-64000000D03*
%TD*%
D19*
%TO.P,JP1,1,A*%
%TO.N,GND*%
X167100000Y-108300000D03*
D20*
%TO.P,JP1,2,B*%
%TO.N,Net-(JP1-B)*%
X167100000Y-110840000D03*
%TD*%
D25*
%TO.P,C2,1*%
%TO.N,+3V3*%
X185600000Y-98625000D03*
%TO.P,C2,2*%
%TO.N,GND*%
X185600000Y-100175000D03*
%TD*%
D10*
%TO.P,D309,1,K*%
%TO.N,/COL9*%
X192874999Y-60000000D03*
%TO.P,D309,2,A*%
%TO.N,/ROW3*%
X191125001Y-60000000D03*
%TD*%
%TO.P,D809,1,K*%
%TO.N,/COL9*%
X192874999Y-50000000D03*
%TO.P,D809,2,A*%
%TO.N,/ROW8*%
X191125001Y-50000000D03*
%TD*%
%TO.P,D801,1,K*%
%TO.N,/COL1*%
X160874999Y-50000000D03*
%TO.P,D801,2,A*%
%TO.N,/ROW8*%
X159125001Y-50000000D03*
%TD*%
D15*
%TO.P,H1,1,1*%
%TO.N,GND*%
X145000000Y-48000000D03*
%TD*%
D10*
%TO.P,D413,1,K*%
%TO.N,/COL13*%
X208874999Y-58000000D03*
%TO.P,D413,2,A*%
%TO.N,/ROW4*%
X207125001Y-58000000D03*
%TD*%
%TO.P,D803,1,K*%
%TO.N,/COL3*%
X168874999Y-50000000D03*
%TO.P,D803,2,A*%
%TO.N,/ROW8*%
X167125001Y-50000000D03*
%TD*%
%TO.P,D513,1,K*%
%TO.N,/COL13*%
X208874999Y-56000000D03*
%TO.P,D513,2,A*%
%TO.N,/ROW5*%
X207125001Y-56000000D03*
%TD*%
%TO.P,D703,1,K*%
%TO.N,/COL3*%
X168874999Y-52000000D03*
%TO.P,D703,2,A*%
%TO.N,/ROW7*%
X167125001Y-52000000D03*
%TD*%
D15*
%TO.P,H3,1,1*%
%TO.N,GND*%
X145000000Y-119000000D03*
%TD*%
D10*
%TO.P,D706,1,K*%
%TO.N,/COL6*%
X180874999Y-52000000D03*
%TO.P,D706,2,A*%
%TO.N,/ROW7*%
X179125001Y-52000000D03*
%TD*%
%TO.P,D601,1,K*%
%TO.N,/COL1*%
X160874999Y-54000000D03*
%TO.P,D601,2,A*%
%TO.N,/ROW6*%
X159125001Y-54000000D03*
%TD*%
%TO.P,D708,1,K*%
%TO.N,/COL8*%
X188874999Y-52000000D03*
%TO.P,D708,2,A*%
%TO.N,/ROW7*%
X187125001Y-52000000D03*
%TD*%
%TO.P,D515,1,K*%
%TO.N,/COL15*%
X216874999Y-56000000D03*
%TO.P,D515,2,A*%
%TO.N,/ROW5*%
X215125001Y-56000000D03*
%TD*%
%TO.P,D704,1,K*%
%TO.N,/COL4*%
X172874999Y-52000000D03*
%TO.P,D704,2,A*%
%TO.N,/ROW7*%
X171125001Y-52000000D03*
%TD*%
%TO.P,D806,1,K*%
%TO.N,/COL6*%
X180874999Y-50000000D03*
%TO.P,D806,2,A*%
%TO.N,/ROW8*%
X179125001Y-50000000D03*
%TD*%
D16*
%TO.P,R4,1*%
%TO.N,GND*%
X170315000Y-88600001D03*
%TO.P,R4,2*%
%TO.N,/ROW2*%
X171965000Y-88600001D03*
%TD*%
D11*
%TO.P,Q7,1,G*%
%TO.N,Net-(Q7-G)*%
X205419999Y-83662501D03*
%TO.P,Q7,2,S*%
%TO.N,VCC*%
X203519999Y-83662501D03*
%TO.P,Q7,3,D*%
%TO.N,/ROW7*%
X204469999Y-85537502D03*
%TD*%
D16*
%TO.P,R16,1*%
%TO.N,GND*%
X198144998Y-88600001D03*
%TO.P,R16,2*%
%TO.N,/ROW6*%
X199794998Y-88600001D03*
%TD*%
D10*
%TO.P,D104,1,K*%
%TO.N,/COL4*%
X172874999Y-64000000D03*
%TO.P,D104,2,A*%
%TO.N,/ROW1*%
X171125001Y-64000000D03*
%TD*%
%TO.P,D407,1,K*%
%TO.N,/COL7*%
X184874999Y-58000000D03*
%TO.P,D407,2,A*%
%TO.N,/ROW4*%
X183125001Y-58000000D03*
%TD*%
%TO.P,D103,1,K*%
%TO.N,/COL3*%
X168874999Y-64000000D03*
%TO.P,D103,2,A*%
%TO.N,/ROW1*%
X167125001Y-64000000D03*
%TD*%
%TO.P,D403,1,K*%
%TO.N,/COL3*%
X168874999Y-58000000D03*
%TO.P,D403,2,A*%
%TO.N,/ROW4*%
X167125001Y-58000000D03*
%TD*%
%TO.P,D116,1,K*%
%TO.N,/COL16*%
X220874999Y-64000000D03*
%TO.P,D116,2,A*%
%TO.N,/ROW1*%
X219125001Y-64000000D03*
%TD*%
%TO.P,D216,1,K*%
%TO.N,/COL16*%
X220874999Y-62000000D03*
%TO.P,D216,2,A*%
%TO.N,/ROW2*%
X219125001Y-62000000D03*
%TD*%
%TO.P,D204,1,K*%
%TO.N,/COL4*%
X172874999Y-62000000D03*
%TO.P,D204,2,A*%
%TO.N,/ROW2*%
X171125001Y-62000000D03*
%TD*%
%TO.P,D412,1,K*%
%TO.N,/COL12*%
X204874999Y-58000000D03*
%TO.P,D412,2,A*%
%TO.N,/ROW4*%
X203125001Y-58000000D03*
%TD*%
%TO.P,D113,1,K*%
%TO.N,/COL13*%
X208874999Y-64000000D03*
%TO.P,D113,2,A*%
%TO.N,/ROW1*%
X207125001Y-64000000D03*
%TD*%
D11*
%TO.P,Q2,1,G*%
%TO.N,Net-(Q2-G)*%
X170419999Y-83662501D03*
%TO.P,Q2,2,S*%
%TO.N,VCC*%
X168519999Y-83662501D03*
%TO.P,Q2,3,D*%
%TO.N,/ROW2*%
X169469999Y-85537502D03*
%TD*%
D10*
%TO.P,D503,1,K*%
%TO.N,/COL3*%
X168874999Y-56000000D03*
%TO.P,D503,2,A*%
%TO.N,/ROW5*%
X167125001Y-56000000D03*
%TD*%
D26*
%TO.P,C3,1*%
%TO.N,+3V3*%
X189800000Y-78000000D03*
%TO.P,C3,2*%
%TO.N,GND*%
X188250000Y-78000000D03*
%TD*%
D10*
%TO.P,D110,1,K*%
%TO.N,/COL10*%
X196874999Y-64000000D03*
%TO.P,D110,2,A*%
%TO.N,/ROW1*%
X195125001Y-64000000D03*
%TD*%
D11*
%TO.P,Q5,1,G*%
%TO.N,Net-(Q5-G)*%
X191419999Y-83662501D03*
%TO.P,Q5,2,S*%
%TO.N,VCC*%
X189519999Y-83662501D03*
%TO.P,Q5,3,D*%
%TO.N,/ROW5*%
X190469999Y-85537502D03*
%TD*%
D10*
%TO.P,D814,1,K*%
%TO.N,/COL14*%
X212874999Y-50000000D03*
%TO.P,D814,2,A*%
%TO.N,/ROW8*%
X211125001Y-50000000D03*
%TD*%
D27*
%TO.N,GND*%
X195800000Y-76400000D03*
X170400000Y-67500000D03*
X183000000Y-113200000D03*
X174250000Y-82400000D03*
X185600000Y-101500000D03*
X163100000Y-90100000D03*
X205000000Y-90100000D03*
X172450000Y-69650000D03*
X201100000Y-113200000D03*
X193400000Y-116200000D03*
X212000000Y-90100000D03*
X169400000Y-71500000D03*
X185300000Y-104200000D03*
X172850000Y-85700000D03*
X191200000Y-90100000D03*
X184200000Y-90100000D03*
X177200000Y-90100000D03*
X176950000Y-103250000D03*
X173600000Y-100500000D03*
X194400000Y-101200000D03*
X186400000Y-78000000D03*
X191000000Y-75400000D03*
X167550000Y-69700000D03*
X198100000Y-90100000D03*
X170200000Y-90100000D03*
X175050000Y-98250000D03*
X180450000Y-98350000D03*
%TO.N,/ROW1*%
X182040163Y-64000000D03*
X198027375Y-64000000D03*
X162025893Y-64000000D03*
X174034455Y-64000000D03*
X166028747Y-64000000D03*
X151850000Y-72450000D03*
X170031601Y-64000000D03*
X157600000Y-67650000D03*
X210035937Y-64000000D03*
X178037309Y-64000000D03*
X157600000Y-64000000D03*
X190021667Y-64000000D03*
X206033083Y-64000000D03*
X194024521Y-64000000D03*
X159656618Y-84127439D03*
X161469999Y-85900002D03*
X186043017Y-64000000D03*
X202030229Y-64000000D03*
X214038791Y-64000000D03*
X218041650Y-64000000D03*
%TO.N,/ROW2*%
X202030229Y-62000000D03*
X152650000Y-74200000D03*
X218041650Y-62000000D03*
X170031601Y-62000000D03*
X171221400Y-87528400D03*
X162025893Y-62000000D03*
X198027375Y-62000000D03*
X214038791Y-62000000D03*
X206033083Y-62000000D03*
X156800000Y-71000000D03*
X194024521Y-62000000D03*
X174034455Y-62000000D03*
X178037309Y-62000000D03*
X166028747Y-62000000D03*
X210035937Y-62000000D03*
X167000000Y-81800000D03*
X182040163Y-62000000D03*
X169011600Y-86817200D03*
X190021667Y-62005088D03*
X157600000Y-62000000D03*
X186043017Y-62000000D03*
%TO.N,/ROW3*%
X186043017Y-60000000D03*
X157600000Y-60000000D03*
X214038791Y-60000000D03*
X166028747Y-60000000D03*
X156300000Y-73100000D03*
X176123600Y-86664800D03*
X170031601Y-60000000D03*
X202030229Y-60000000D03*
X194024521Y-60000000D03*
X190021667Y-60000000D03*
X173000000Y-81700000D03*
X198027375Y-60000000D03*
X174034455Y-60000000D03*
X154400000Y-75100000D03*
X178917600Y-90068400D03*
X178037309Y-60000000D03*
X182040163Y-60000000D03*
X206033083Y-60000000D03*
X210035937Y-60000000D03*
X218041650Y-60000000D03*
X162025893Y-60000000D03*
%TO.N,/ROW4*%
X182040163Y-58000000D03*
X170800000Y-78200000D03*
X210035937Y-58000000D03*
X174034455Y-58000000D03*
X170031601Y-58000000D03*
X162025893Y-58000000D03*
X152100000Y-69100000D03*
X185800000Y-87300000D03*
X166028747Y-58000000D03*
X206033083Y-58000000D03*
X186043017Y-58000000D03*
X157600000Y-58000000D03*
X183184800Y-86614000D03*
X154500000Y-67750000D03*
X218041650Y-58000000D03*
X198027375Y-58000000D03*
X214038791Y-58000000D03*
X178037309Y-58000000D03*
X190021667Y-58005088D03*
X194024521Y-58000000D03*
X202030229Y-58000000D03*
%TO.N,/ROW5*%
X192608200Y-87122000D03*
X214038791Y-56000000D03*
X162025893Y-56000000D03*
X157600000Y-56000000D03*
X174034455Y-56000000D03*
X166028747Y-56000000D03*
X202030229Y-56000000D03*
X218041650Y-56000000D03*
X190021667Y-56000000D03*
X182040163Y-56000000D03*
X186043017Y-56000000D03*
X181800000Y-81000000D03*
X210035937Y-56000000D03*
X198027375Y-56000000D03*
X189814200Y-86563200D03*
X206033083Y-56000000D03*
X178037309Y-56000000D03*
X170031601Y-56000000D03*
X194024521Y-56000000D03*
%TO.N,/ROW6*%
X170031601Y-54000000D03*
X166028747Y-54000000D03*
X157600000Y-54000000D03*
X218041650Y-54000000D03*
X174034455Y-54000000D03*
X178037309Y-54000000D03*
X198027375Y-54000000D03*
X194200000Y-81000000D03*
X162025893Y-54000000D03*
X182040163Y-54000000D03*
X186043017Y-54000000D03*
X210035937Y-54000000D03*
X151600000Y-77624265D03*
X158000000Y-74000000D03*
X206033083Y-54000000D03*
X194024521Y-54000000D03*
X196850000Y-86639400D03*
X190021667Y-54005088D03*
X202030229Y-54000000D03*
X214038791Y-54000000D03*
%TO.N,/ROW7*%
X202030229Y-52000000D03*
X214038791Y-52000000D03*
X218041650Y-52000000D03*
X203860400Y-86639400D03*
X190021667Y-52000000D03*
X201400000Y-80000000D03*
X174034455Y-52000000D03*
X206033083Y-52000000D03*
X178037309Y-52000000D03*
X153400000Y-79300000D03*
X210035937Y-52000000D03*
X162025893Y-52000000D03*
X160150000Y-73800000D03*
X157600000Y-52000000D03*
X198027375Y-52000000D03*
X186043017Y-52000000D03*
X194024521Y-52000000D03*
X170031601Y-52000000D03*
X182040163Y-52000000D03*
X166028747Y-52000000D03*
%TO.N,/ROW8*%
X202030229Y-50000000D03*
X154400000Y-81000000D03*
X190021667Y-50005088D03*
X210035937Y-50000000D03*
X210845400Y-86487000D03*
X174034455Y-50000000D03*
X208800000Y-83600000D03*
X198027375Y-50000000D03*
X206033083Y-50000000D03*
X186043017Y-50000000D03*
X157600000Y-50000000D03*
X194024521Y-50000000D03*
X218041650Y-50000000D03*
X162025893Y-50000000D03*
X166028747Y-50000000D03*
X182040163Y-50000000D03*
X178037309Y-50000000D03*
X162300000Y-73300000D03*
X170031601Y-50000000D03*
X214038791Y-50000000D03*
%TO.N,/SCK*%
X189500000Y-114400000D03*
X187800000Y-122100000D03*
%TO.N,/MISO*%
X197500000Y-99100000D03*
X188400000Y-95600000D03*
%TO.N,/OE*%
X189400000Y-97000000D03*
X194000000Y-105800000D03*
X179200000Y-74600000D03*
X172800000Y-99400000D03*
X157150000Y-85150000D03*
%TO.N,/LE*%
X194600000Y-123000000D03*
X194509999Y-116990001D03*
%TO.N,/MOSI*%
X211100000Y-75900000D03*
X211100000Y-78700000D03*
%TO.N,/REXT1*%
X167500000Y-101500000D03*
X183800000Y-102800000D03*
%TO.N,Net-(U1-SDI)*%
X183200000Y-104600000D03*
X175000000Y-104600000D03*
X180400000Y-70000000D03*
X178200000Y-68600000D03*
X183400000Y-75800000D03*
X179200000Y-104600000D03*
X171400000Y-104600000D03*
X155450000Y-83250000D03*
%TD*%
D28*
%TO.N,GND*%
X173600000Y-100200000D02*
X175050000Y-98750000D01*
X191144999Y-90044999D02*
X191200000Y-90100000D01*
X183439999Y-113200000D02*
X184349999Y-112290000D01*
X174250000Y-82400000D02*
X174250000Y-83650000D01*
X170315000Y-88600001D02*
X170315000Y-89985000D01*
X201100000Y-113200000D02*
X200499999Y-113200000D01*
X172850000Y-85050000D02*
X172850000Y-85700000D01*
X176950000Y-101850000D02*
X176950000Y-103250000D01*
X184349999Y-108749999D02*
X184000000Y-108400000D01*
X212000000Y-90100000D02*
X212000000Y-88745000D01*
X195800000Y-76400000D02*
X195400000Y-76000000D01*
X173600000Y-100500000D02*
X173600000Y-100200000D01*
X191969999Y-108749999D02*
X191620000Y-108400000D01*
X205144999Y-89955001D02*
X205000000Y-90100000D01*
X175050000Y-98750000D02*
X175050000Y-98250000D01*
X191000000Y-72600000D02*
X190825000Y-72425000D01*
X191144999Y-88600001D02*
X191144999Y-90044999D01*
X183000000Y-113200000D02*
X183439999Y-113200000D01*
X205144999Y-88600001D02*
X205144999Y-89955001D01*
X184144999Y-89944999D02*
X184144999Y-88600000D01*
X163100000Y-88645000D02*
X163144999Y-88600001D01*
X185300000Y-104200000D02*
X187569999Y-104200000D01*
X212000000Y-88745000D02*
X212144999Y-88600001D01*
X184349999Y-112290000D02*
X184349999Y-108749999D01*
X185600000Y-100175000D02*
X185600000Y-101500000D01*
X174250000Y-83650000D02*
X172850000Y-85050000D01*
X167600000Y-69700000D02*
X169400000Y-71500000D01*
X187569999Y-104200000D02*
X187694999Y-104075000D01*
X195400000Y-76000000D02*
X193700000Y-76000000D01*
X163100000Y-90100000D02*
X163100000Y-88645000D01*
X194400000Y-101200000D02*
X191269999Y-101200000D01*
X191000000Y-75400000D02*
X191000000Y-72600000D01*
X199589999Y-108749998D02*
X199240001Y-108400000D01*
X193400000Y-116200000D02*
X192569999Y-116200000D01*
X172450000Y-69650000D02*
X172450000Y-69600000D01*
X198144998Y-90055002D02*
X198100000Y-90100000D01*
X184200000Y-90000000D02*
X184144999Y-89944999D01*
X177144999Y-90044999D02*
X177144999Y-88600001D01*
X188250000Y-78000000D02*
X186400000Y-78000000D01*
X177200000Y-90100000D02*
X177144999Y-90044999D01*
X192569999Y-116200000D02*
X191969999Y-115600000D01*
X199589999Y-112290000D02*
X199589999Y-108749998D01*
X167550000Y-69700000D02*
X167600000Y-69700000D01*
X180450000Y-98350000D02*
X176950000Y-101850000D01*
X172450000Y-69600000D02*
X170400000Y-67550000D01*
X170400000Y-67550000D02*
X170400000Y-67500000D01*
X198144998Y-88600001D02*
X198144998Y-90055002D01*
X170315000Y-89985000D02*
X170200000Y-90100000D01*
X191969999Y-115600000D02*
X191969999Y-108749999D01*
X200499999Y-113200000D02*
X199589999Y-112290000D01*
%TO.N,+3V3*%
X187419999Y-98600000D02*
X187694999Y-98325000D01*
X181809999Y-115600000D02*
X181809999Y-108749999D01*
X181460000Y-108400000D02*
X181460000Y-101340000D01*
X173000000Y-103000000D02*
X173000000Y-119000000D01*
X184200000Y-98600000D02*
X187419999Y-98600000D01*
X219000000Y-119000000D02*
X219000000Y-102000000D01*
X216400000Y-77700000D02*
X205200000Y-77700000D01*
X224000000Y-85300000D02*
X216400000Y-77700000D01*
X205200000Y-77700000D02*
X204900000Y-78000000D01*
X224000000Y-97000000D02*
X224000000Y-85300000D01*
X186300000Y-95700000D02*
X180300000Y-95700000D01*
X181460000Y-101340000D02*
X184200000Y-98600000D01*
X204900000Y-78000000D02*
X189950000Y-78000000D01*
X180300000Y-95700000D02*
X173000000Y-103000000D01*
X219000000Y-102000000D02*
X224000000Y-97000000D01*
X181809999Y-108749999D02*
X181460000Y-108400000D01*
X187694999Y-98325000D02*
X187694999Y-97094999D01*
X173000000Y-119000000D02*
X219000000Y-119000000D01*
X189950000Y-78000000D02*
X187950000Y-76000000D01*
X187694999Y-97094999D02*
X186300000Y-95700000D01*
D29*
%TO.N,/ROW1*%
X206033083Y-64000000D02*
X207125000Y-64000000D01*
X170031601Y-64000000D02*
X171125000Y-64000000D01*
X163804600Y-82473800D02*
X162991800Y-82473800D01*
X151800000Y-72500000D02*
X151850000Y-72450000D01*
X211125000Y-64000000D02*
X210035937Y-64000000D01*
X162107500Y-85900001D02*
X162469999Y-85537502D01*
X164794999Y-88600001D02*
X164794999Y-83464199D01*
X178037309Y-64000000D02*
X179125000Y-64000000D01*
X166028747Y-64000000D02*
X167125000Y-64000000D01*
X194024521Y-64000000D02*
X195125000Y-64000000D01*
X157600000Y-64000000D02*
X159125000Y-64000000D01*
X164794999Y-83464199D02*
X163804600Y-82473800D01*
X151800000Y-76200000D02*
X151800000Y-72500000D01*
X202030229Y-64000000D02*
X203125000Y-64000000D01*
X174034455Y-64000000D02*
X175125000Y-64000000D01*
X199125000Y-64000000D02*
X198027375Y-64000000D01*
X186043017Y-64000000D02*
X187125000Y-64000000D01*
X157600000Y-67650000D02*
X157600000Y-64000000D01*
X218041650Y-64000000D02*
X219125000Y-64000000D01*
X162991800Y-82473800D02*
X162469999Y-82995601D01*
X162469999Y-82995601D02*
X162469999Y-85537502D01*
X190021667Y-64000000D02*
X191125000Y-64000000D01*
X162025893Y-64000000D02*
X163125000Y-64000000D01*
X161469999Y-85900002D02*
X162107500Y-85900001D01*
X159656618Y-84056618D02*
X151800000Y-76200000D01*
X214038791Y-64000000D02*
X215125000Y-64000000D01*
X159656618Y-84127439D02*
X159656618Y-84056618D01*
X182040163Y-64000000D02*
X183125000Y-64000000D01*
%TO.N,/COL1*%
X187950000Y-73400000D02*
X179700000Y-73400000D01*
X160874999Y-50000000D02*
X160874999Y-65474999D01*
X168200000Y-72800000D02*
X166800000Y-71400000D01*
X160874999Y-65474999D02*
X166800000Y-71400000D01*
X179100000Y-72800000D02*
X168200000Y-72800000D01*
X179700000Y-73400000D02*
X179100000Y-72800000D01*
%TO.N,/COL2*%
X172300000Y-72000000D02*
X164874999Y-64574999D01*
X164874999Y-63694781D02*
X164874999Y-50000000D01*
X164874999Y-64574999D02*
X164874999Y-64000000D01*
X179500000Y-72000000D02*
X172300000Y-72000000D01*
X180250000Y-72750000D02*
X179500000Y-72000000D01*
X187950000Y-72750000D02*
X180250000Y-72750000D01*
%TO.N,/COL3*%
X187950000Y-72100000D02*
X180800000Y-72100000D01*
X180000000Y-71300000D02*
X176174999Y-71300000D01*
X168874999Y-50000000D02*
X168874999Y-64174999D01*
X176174999Y-71300000D02*
X168874999Y-64000000D01*
X180800000Y-72100000D02*
X180000000Y-71300000D01*
%TO.N,/COL4*%
X187950000Y-71450000D02*
X183250000Y-71450000D01*
X183250000Y-71450000D02*
X182500000Y-70700000D01*
X172874999Y-65474999D02*
X172874999Y-64000000D01*
X172874999Y-50000000D02*
X172874999Y-65374999D01*
X182500000Y-70700000D02*
X178100000Y-70700000D01*
X178100000Y-70700000D02*
X172874999Y-65474999D01*
X187900000Y-71400000D02*
X187950000Y-71450000D01*
%TO.N,/COL5*%
X176874999Y-63999999D02*
X176875000Y-64000000D01*
X183674999Y-70800000D02*
X176874999Y-64000000D01*
X187950000Y-70800000D02*
X183674999Y-70800000D01*
X176874999Y-50000000D02*
X176874999Y-63999999D01*
%TO.N,/COL6*%
X186850000Y-70150000D02*
X186400000Y-69700000D01*
X180874999Y-50000000D02*
X180874999Y-63999999D01*
X180874999Y-63999999D02*
X180875000Y-64000000D01*
X184500000Y-69700000D02*
X180874999Y-66074999D01*
X180874999Y-66074999D02*
X180874999Y-64000000D01*
X186400000Y-69700000D02*
X184500000Y-69700000D01*
X187950000Y-70150000D02*
X186850000Y-70150000D01*
%TO.N,/COL7*%
X184875000Y-56875000D02*
X184875000Y-64000000D01*
X184874999Y-56874999D02*
X184875000Y-56875000D01*
X187175001Y-69500000D02*
X184874999Y-67199998D01*
X187950000Y-69500000D02*
X187175001Y-69500000D01*
X184874999Y-67199998D02*
X184874999Y-64000000D01*
X184874999Y-50000000D02*
X184874999Y-56874999D01*
%TO.N,/COL8*%
X188874999Y-67925001D02*
X188874999Y-50000000D01*
X187950000Y-68850000D02*
X188874999Y-67925001D01*
%TO.N,/COL9*%
X192874999Y-63999999D02*
X192875000Y-64000000D01*
X192874999Y-50000000D02*
X192874999Y-63999999D01*
X193700000Y-68850000D02*
X192874999Y-68024999D01*
X192874999Y-68024999D02*
X192874999Y-64000000D01*
%TO.N,/COL10*%
X196874999Y-50000000D02*
X196874999Y-63999999D01*
X196874999Y-63999999D02*
X196875000Y-64000000D01*
X194600000Y-69500000D02*
X193700000Y-69500000D01*
X196874999Y-67225001D02*
X194600000Y-69500000D01*
X196874999Y-64000000D02*
X196874999Y-67225001D01*
%TO.N,/COL11*%
X200874999Y-50000000D02*
X200874999Y-63999999D01*
X200874999Y-64000000D02*
X200874999Y-66925001D01*
X199100000Y-68700000D02*
X196400000Y-68700000D01*
X200874999Y-63999999D02*
X200875000Y-64000000D01*
X200874999Y-66925001D02*
X199100000Y-68700000D01*
X194950000Y-70150000D02*
X193700000Y-70150000D01*
X196400000Y-68700000D02*
X194950000Y-70150000D01*
%TO.N,/COL12*%
X195300000Y-70800000D02*
X196600000Y-69500000D01*
X193700000Y-70800000D02*
X195300000Y-70800000D01*
X202700000Y-67800000D02*
X204874999Y-65625001D01*
X204874999Y-63999999D02*
X204875000Y-64000000D01*
X201400000Y-67800000D02*
X202700000Y-67800000D01*
X196600000Y-69500000D02*
X199700000Y-69500000D01*
X199700000Y-69500000D02*
X201400000Y-67800000D01*
X204874999Y-65625001D02*
X204874999Y-64000000D01*
X204874999Y-50000000D02*
X204874999Y-63999999D01*
%TO.N,/COL13*%
X208774999Y-69000000D02*
X208874999Y-68900000D01*
X197000000Y-70100000D02*
X201000000Y-70100000D01*
X208874999Y-68900000D02*
X208874999Y-64000000D01*
X208874999Y-50000000D02*
X208874999Y-63999999D01*
X193700000Y-71450000D02*
X193750000Y-71400000D01*
X195700000Y-71400000D02*
X197000000Y-70100000D01*
X201000000Y-70100000D02*
X202100000Y-69000000D01*
X202100000Y-69000000D02*
X208774999Y-69000000D01*
X193750000Y-71400000D02*
X195700000Y-71400000D01*
X208874999Y-63999999D02*
X208875000Y-64000000D01*
%TO.N,/COL14*%
X197800000Y-70800000D02*
X196500000Y-72100000D01*
X196500000Y-72100000D02*
X193700000Y-72100000D01*
X212874999Y-50000000D02*
X212874999Y-63999999D01*
X212874999Y-69025001D02*
X211100000Y-70800000D01*
X212874999Y-63999999D02*
X212875000Y-64000000D01*
X211100000Y-70800000D02*
X197800000Y-70800000D01*
X212874999Y-64000000D02*
X212874999Y-69025001D01*
%TO.N,/COL15*%
X216874999Y-55541723D02*
X216875000Y-55541724D01*
X193700000Y-72750000D02*
X196950000Y-72750000D01*
X197500000Y-72200000D02*
X213700000Y-72200000D01*
X196950000Y-72750000D02*
X197500000Y-72200000D01*
X216875000Y-55541724D02*
X216875000Y-64000000D01*
X216874999Y-50000000D02*
X216874999Y-55541723D01*
X213700000Y-72200000D02*
X216874999Y-69025001D01*
X216874999Y-69025001D02*
X216874999Y-64000000D01*
%TO.N,/COL16*%
X220874999Y-50000000D02*
X220874999Y-63999999D01*
X219300000Y-73400000D02*
X193700000Y-73400000D01*
X220874999Y-63999999D02*
X220875000Y-64000000D01*
X220874999Y-64000000D02*
X220874999Y-71825001D01*
X220874999Y-71825001D02*
X219300000Y-73400000D01*
%TO.N,/ROW2*%
X195125000Y-62000000D02*
X194024521Y-62000000D01*
X166028747Y-62000000D02*
X167125000Y-62000000D01*
X210035937Y-62000000D02*
X211125000Y-62000000D01*
X191119912Y-62005088D02*
X191125000Y-62000000D01*
X152650000Y-74200000D02*
X152650000Y-75050000D01*
X156800000Y-62800000D02*
X157600000Y-62000000D01*
X162025893Y-62000000D02*
X163125000Y-62000000D01*
X165800000Y-80600000D02*
X167000000Y-81800000D01*
X202030229Y-62000000D02*
X203125000Y-62000000D01*
X214038791Y-62000000D02*
X215125000Y-62000000D01*
X152650000Y-75050000D02*
X158200000Y-80600000D01*
X171965000Y-88272000D02*
X171221400Y-87528400D01*
X178037309Y-62000000D02*
X179125000Y-62000000D01*
X171965000Y-88600001D02*
X171965000Y-88272000D01*
X169011600Y-86817200D02*
X169469999Y-86358801D01*
X186043017Y-62000000D02*
X187125000Y-62000000D01*
X218041650Y-62000000D02*
X219125000Y-62000000D01*
X174034455Y-62000000D02*
X175125000Y-62000000D01*
X158200000Y-80600000D02*
X165800000Y-80600000D01*
X170031601Y-62000000D02*
X171125000Y-62000000D01*
X206033083Y-62000000D02*
X207125000Y-62000000D01*
X190021667Y-62005088D02*
X191119912Y-62005088D01*
X157600000Y-62000000D02*
X159125000Y-62000000D01*
X182040163Y-62000000D02*
X183125000Y-62000000D01*
X156800000Y-71000000D02*
X156800000Y-62800000D01*
X198027375Y-62000000D02*
X199125000Y-62000000D01*
X169469999Y-86358801D02*
X169469999Y-85537502D01*
%TO.N,/ROW3*%
X170700000Y-79400000D02*
X158700000Y-79400000D01*
X176469999Y-86318401D02*
X176123600Y-86664800D01*
X158700000Y-79400000D02*
X154400000Y-75100000D01*
X178917600Y-90068400D02*
X178917600Y-88722602D01*
X202030229Y-60000000D02*
X203125000Y-60000000D01*
X214038791Y-60000000D02*
X215125000Y-60000000D01*
X218041650Y-60000000D02*
X219125000Y-60000000D01*
X156300000Y-73100000D02*
X156000000Y-72800000D01*
X156000000Y-72800000D02*
X156000000Y-61600000D01*
X178037309Y-60000000D02*
X179125000Y-60000000D01*
X156000000Y-61600000D02*
X157600000Y-60000000D01*
X210035937Y-60000000D02*
X211125000Y-60000000D01*
X157600000Y-60000000D02*
X159125000Y-60000000D01*
X207125000Y-60000000D02*
X206033083Y-60000000D01*
X176469999Y-85537502D02*
X176469999Y-86318401D01*
X166028747Y-60000000D02*
X167125000Y-60000000D01*
X198027375Y-60000000D02*
X199125000Y-60000000D01*
X170031601Y-60000000D02*
X171125000Y-60000000D01*
X194024521Y-60000000D02*
X195125000Y-60000000D01*
X173000000Y-81700000D02*
X170700000Y-79400000D01*
X190021667Y-60000000D02*
X191125000Y-60000000D01*
X182040163Y-60000000D02*
X183125000Y-60000000D01*
X186043017Y-60000000D02*
X187125000Y-60000000D01*
X178917600Y-88722602D02*
X178794999Y-88600001D01*
X162025893Y-60000000D02*
X163125000Y-60000000D01*
X174034455Y-60000000D02*
X175125000Y-60000000D01*
%TO.N,/ROW4*%
X186043017Y-58000000D02*
X187125000Y-58000000D01*
X202030229Y-58000000D02*
X203125000Y-58000000D01*
X157600000Y-58000000D02*
X159125000Y-58000000D01*
X206033083Y-58000000D02*
X207125000Y-58000000D01*
X191119912Y-58005088D02*
X191125000Y-58000000D01*
X182040163Y-58000000D02*
X183125000Y-58000000D01*
X170031601Y-58000000D02*
X171125000Y-58000000D01*
X152100000Y-71500000D02*
X152100000Y-69100000D01*
X158800000Y-78200000D02*
X152100000Y-71500000D01*
X174034455Y-58000000D02*
X175125000Y-58000000D01*
X194024521Y-58000000D02*
X195125000Y-58000000D01*
X183184800Y-85822701D02*
X183469999Y-85537502D01*
X218041650Y-58000000D02*
X219125000Y-58000000D01*
X170800000Y-78200000D02*
X158800000Y-78200000D01*
X185794999Y-88600000D02*
X185794999Y-87356601D01*
X154500000Y-67750000D02*
X154500000Y-61100000D01*
X183184800Y-86614000D02*
X183184800Y-85822701D01*
X210035937Y-58000000D02*
X211125000Y-58000000D01*
X166028747Y-58000000D02*
X167125000Y-58000000D01*
X178037309Y-58000000D02*
X179125000Y-58000000D01*
X198027375Y-58000000D02*
X199125000Y-58000000D01*
X154500000Y-61100000D02*
X157600000Y-58000000D01*
X162025893Y-58000000D02*
X163125000Y-58000000D01*
X190021667Y-58005088D02*
X191119912Y-58005088D01*
X214038791Y-58000000D02*
X215125000Y-58000000D01*
%TO.N,/ROW5*%
X194024521Y-56000000D02*
X195125000Y-56000000D01*
X192794999Y-87308799D02*
X192608200Y-87122000D01*
X157600000Y-56000000D02*
X159125001Y-56000000D01*
X186092629Y-55998792D02*
X187168793Y-55998792D01*
X152900000Y-59300000D02*
X152900000Y-69000000D01*
X152900000Y-70900000D02*
X152900000Y-69000000D01*
X189814200Y-86193301D02*
X190469999Y-85537502D01*
X178037309Y-56000000D02*
X179125000Y-56000000D01*
X210035937Y-56000000D02*
X211125000Y-56000000D01*
X180400000Y-79600000D02*
X176600000Y-79600000D01*
X198027375Y-56000000D02*
X199125000Y-56000000D01*
X166028747Y-56000000D02*
X167125000Y-56000000D01*
X176600000Y-79600000D02*
X173962000Y-76962000D01*
X218041650Y-56000000D02*
X219125000Y-56000000D01*
X187168793Y-55998792D02*
X187170001Y-56000000D01*
X202030229Y-56000000D02*
X203125000Y-56000000D01*
X182040163Y-56000000D02*
X183125000Y-56000000D01*
X174034455Y-56000000D02*
X175125000Y-56000000D01*
X206033083Y-56000000D02*
X207125000Y-56000000D01*
X192794999Y-88600001D02*
X192794999Y-87308799D01*
X162025893Y-56000000D02*
X163125001Y-56000000D01*
X190021667Y-56000000D02*
X191125000Y-56000000D01*
X173962000Y-76962000D02*
X158962000Y-76962000D01*
X158962000Y-76962000D02*
X152900000Y-70900000D01*
X156200000Y-56000000D02*
X152900000Y-59300000D01*
X157600000Y-56000000D02*
X156200000Y-56000000D01*
X171125000Y-56000000D02*
X170031601Y-56000000D01*
X214038791Y-56000000D02*
X215125000Y-56000000D01*
X181800000Y-81000000D02*
X180400000Y-79600000D01*
X189814200Y-86563200D02*
X189814200Y-86193301D01*
%TO.N,/ROW6*%
X210035937Y-54000000D02*
X211125000Y-54000000D01*
X150750000Y-76774265D02*
X150750000Y-58050000D01*
X198145400Y-82423000D02*
X197469999Y-83098401D01*
X199390000Y-86156800D02*
X199390000Y-82423000D01*
X188200000Y-81000000D02*
X194200000Y-81000000D01*
X174034455Y-54000000D02*
X175125000Y-54000000D01*
X198027375Y-54000000D02*
X199125000Y-54000000D01*
X181200000Y-79000000D02*
X182489352Y-80289352D01*
X219125000Y-54000000D02*
X218041650Y-54000000D01*
X197469999Y-83098401D02*
X197469999Y-85537502D01*
X206033083Y-54000000D02*
X207125000Y-54000000D01*
X190021667Y-54005088D02*
X191119912Y-54005088D01*
X196850000Y-86639400D02*
X196850000Y-86157501D01*
X170031601Y-54000000D02*
X171125000Y-54000000D01*
X159925093Y-75925093D02*
X174325093Y-75925093D01*
X199794998Y-86561798D02*
X199390000Y-86156800D01*
X162025893Y-54000000D02*
X163125000Y-54000000D01*
X177400000Y-79000000D02*
X181200000Y-79000000D01*
X182489352Y-80289352D02*
X187489352Y-80289352D01*
X194024521Y-54000000D02*
X195125000Y-54000000D01*
X174325093Y-75925093D02*
X177400000Y-79000000D01*
X182040163Y-54000000D02*
X183125000Y-54000000D01*
X151600000Y-77624265D02*
X150750000Y-76774265D01*
X196850000Y-86157501D02*
X197469999Y-85537502D01*
X187489352Y-80289352D02*
X188200000Y-81000000D01*
X166028747Y-54000000D02*
X167125000Y-54000000D01*
X187125000Y-54000000D02*
X186043017Y-54000000D01*
X214038791Y-54000000D02*
X215125000Y-54000000D01*
X178037309Y-54000000D02*
X179125000Y-54000000D01*
X150750000Y-58050000D02*
X154800000Y-54000000D01*
X154800000Y-54000000D02*
X157600000Y-54000000D01*
X202030229Y-54000000D02*
X203125000Y-54000000D01*
X157600000Y-54000000D02*
X159125000Y-54000000D01*
X199390000Y-82423000D02*
X198145400Y-82423000D01*
X191119912Y-54005088D02*
X191125000Y-54000000D01*
X199794998Y-88600001D02*
X199794998Y-86561798D01*
X158000000Y-74000000D02*
X159925093Y-75925093D01*
%TO.N,/ROW7*%
X205968600Y-82423000D02*
X204901800Y-82423000D01*
X162025893Y-52000000D02*
X163125000Y-52000000D01*
X177800000Y-78400000D02*
X182000000Y-78400000D01*
X182040163Y-52000000D02*
X183125000Y-52000000D01*
X174431600Y-75031600D02*
X177800000Y-78400000D01*
X196600000Y-80000000D02*
X201400000Y-80000000D01*
X204901800Y-82423000D02*
X204469999Y-82854801D01*
X206654400Y-83108800D02*
X205968600Y-82423000D01*
X215125000Y-52000000D02*
X214038791Y-52000000D01*
X186043017Y-52000000D02*
X187125000Y-52000000D01*
X194024521Y-52000000D02*
X195125000Y-52000000D01*
X206794999Y-88600001D02*
X206654400Y-88459402D01*
X203860400Y-86639400D02*
X203860400Y-86147101D01*
X218041650Y-52000000D02*
X219125000Y-52000000D01*
X195600000Y-81000000D02*
X196600000Y-80000000D01*
X188400000Y-79800000D02*
X188800000Y-80200000D01*
X210035937Y-52000000D02*
X211125000Y-52000000D01*
X190021667Y-52000000D02*
X191125000Y-52000000D01*
X149850000Y-77650000D02*
X151500000Y-79300000D01*
X160150000Y-73800000D02*
X161381600Y-75031600D01*
X171125000Y-52000000D02*
X170031601Y-52000000D01*
X178037309Y-52000000D02*
X179125000Y-52000000D01*
X183400000Y-79800000D02*
X188400000Y-79800000D01*
X204469999Y-82854801D02*
X204469999Y-85537502D01*
X182000000Y-78400000D02*
X183400000Y-79800000D01*
X166028747Y-52000000D02*
X167125000Y-52000000D01*
X188800000Y-80200000D02*
X194800000Y-80200000D01*
X206654400Y-88459402D02*
X206654400Y-83108800D01*
X157600000Y-52000000D02*
X159125001Y-52000000D01*
X206033083Y-52000000D02*
X207125000Y-52000000D01*
X202030229Y-52000000D02*
X203125000Y-52000000D01*
X153700000Y-52000000D02*
X149850000Y-55850000D01*
X203860400Y-86147101D02*
X204469999Y-85537502D01*
X161381600Y-75031600D02*
X174431600Y-75031600D01*
X149850000Y-55850000D02*
X149850000Y-77650000D01*
X194800000Y-80200000D02*
X195600000Y-81000000D01*
X151500000Y-79300000D02*
X153400000Y-79300000D01*
X198027375Y-52000000D02*
X199125000Y-52000000D01*
X157600000Y-52000000D02*
X153700000Y-52000000D01*
X174034455Y-52000000D02*
X175125000Y-52000000D01*
%TO.N,/ROW8*%
X218041650Y-50000000D02*
X219125001Y-50000000D01*
X148900000Y-54100000D02*
X153000000Y-50000000D01*
X150600000Y-81000000D02*
X154400000Y-81000000D01*
X162300000Y-73300000D02*
X166600000Y-73300000D01*
X196000000Y-79200000D02*
X196200000Y-79000000D01*
X200180600Y-79000000D02*
X200200000Y-79019400D01*
X166028747Y-50000000D02*
X167125001Y-50000000D01*
X185000000Y-78800000D02*
X185600000Y-79400000D01*
X178037309Y-50000000D02*
X179125001Y-50000000D01*
X213794999Y-88600001D02*
X214503000Y-87892000D01*
X150600000Y-81000000D02*
X148900000Y-79300000D01*
X174034455Y-50000000D02*
X175125001Y-50000000D01*
X200200000Y-79019400D02*
X200219400Y-79000000D01*
X191119913Y-50005088D02*
X191125001Y-50000000D01*
X206033083Y-50000000D02*
X207125001Y-50000000D01*
X200219400Y-79000000D02*
X205180600Y-79000000D01*
X214038791Y-50000000D02*
X215125001Y-50000000D01*
X211469999Y-82916001D02*
X211469999Y-85537502D01*
X167800000Y-74500000D02*
X175100000Y-74500000D01*
X214503000Y-83007200D02*
X214120801Y-82625001D01*
X202030229Y-50000000D02*
X203125001Y-50000000D01*
X175100000Y-74500000D02*
X176400000Y-75800000D01*
X210845400Y-86487000D02*
X210845400Y-86162101D01*
X205180600Y-79000000D02*
X206780600Y-80600000D01*
X180400000Y-75800000D02*
X183400000Y-78800000D01*
X186043017Y-50000000D02*
X187125001Y-50000000D01*
X190021667Y-50005088D02*
X191119913Y-50005088D01*
X196200000Y-79000000D02*
X200180600Y-79000000D01*
X183400000Y-78800000D02*
X185000000Y-78800000D01*
X193000000Y-79400000D02*
X193200000Y-79600000D01*
X176400000Y-75800000D02*
X180400000Y-75800000D01*
X210845400Y-86162101D02*
X211469999Y-85537502D01*
X193600000Y-79200000D02*
X196000000Y-79200000D01*
X208800000Y-81200000D02*
X208800000Y-83600000D01*
X210035937Y-50000000D02*
X211125001Y-50000000D01*
X211760999Y-82625001D02*
X211469999Y-82916001D01*
X208200000Y-80600000D02*
X208800000Y-81200000D01*
X148900000Y-79300000D02*
X148900000Y-54100000D01*
X193200000Y-79600000D02*
X193600000Y-79200000D01*
X166600000Y-73300000D02*
X167800000Y-74500000D01*
X157600000Y-50000000D02*
X159125001Y-50000000D01*
X170031601Y-50000000D02*
X171125001Y-50000000D01*
X198027375Y-50000000D02*
X199125001Y-50000000D01*
X182040163Y-50000000D02*
X183125001Y-50000000D01*
X206780600Y-80600000D02*
X208200000Y-80600000D01*
X153000000Y-50000000D02*
X157600000Y-50000000D01*
X214120801Y-82625001D02*
X211760999Y-82625001D01*
X214503000Y-87892000D02*
X214503000Y-83007200D01*
X194024521Y-50000000D02*
X195125001Y-50000000D01*
X162025893Y-50000000D02*
X163125001Y-50000000D01*
X185600000Y-79400000D02*
X193000000Y-79400000D01*
%TO.N,/SCK*%
X189080000Y-104160001D02*
X188994999Y-104075000D01*
X201200000Y-75000000D02*
X224600000Y-75000000D01*
X193700000Y-74700000D02*
X200900000Y-74700000D01*
X227900000Y-117700000D02*
X223500000Y-122100000D01*
X189429999Y-112290000D02*
X189429999Y-108749999D01*
X227900000Y-78300000D02*
X227900000Y-117700000D01*
X223500000Y-122100000D02*
X187800000Y-122100000D01*
X189429999Y-112290000D02*
X189429999Y-114329999D01*
X189429999Y-114329999D02*
X189500000Y-114400000D01*
X224600000Y-75000000D02*
X227900000Y-78300000D01*
X189429999Y-108749999D02*
X189080000Y-108400000D01*
X200900000Y-74700000D02*
X201200000Y-75000000D01*
X189080000Y-108400000D02*
X189080000Y-104160001D01*
%TO.N,/MISO*%
X188994999Y-97443528D02*
X188994999Y-98325000D01*
X188400000Y-95600000D02*
X188400000Y-96848529D01*
X197500000Y-100100000D02*
X201780000Y-104380000D01*
X202129999Y-108749999D02*
X201780000Y-108400000D01*
X188400000Y-96848529D02*
X188994999Y-97443528D01*
X201780000Y-104380000D02*
X201780000Y-108400000D01*
X197500000Y-99100000D02*
X197500000Y-100100000D01*
X202129999Y-115600000D02*
X202129999Y-108749999D01*
%TO.N,/OE*%
X157150000Y-93650000D02*
X162900000Y-99400000D01*
X189644998Y-97244998D02*
X189644998Y-98325000D01*
X196700000Y-108400000D02*
X194100000Y-105800000D01*
X197049999Y-108749999D02*
X196700000Y-108400000D01*
X162900000Y-99400000D02*
X172800000Y-99400000D01*
X194100000Y-105800000D02*
X194000000Y-105800000D01*
X179750000Y-74050000D02*
X187950000Y-74050000D01*
X157150000Y-85150000D02*
X157150000Y-93650000D01*
X197049999Y-115600000D02*
X197049999Y-108749999D01*
X189400000Y-97000000D02*
X189644998Y-97244998D01*
X179200000Y-74600000D02*
X179750000Y-74050000D01*
%TO.N,/LE*%
X194509999Y-112290000D02*
X194509999Y-116990001D01*
X190000000Y-106000000D02*
X189644998Y-105644998D01*
X226923599Y-123000000D02*
X229500000Y-120423599D01*
X191760000Y-106000000D02*
X190000000Y-106000000D01*
X229500000Y-120423599D02*
X229500000Y-74700000D01*
X194160000Y-108400000D02*
X191760000Y-106000000D01*
X194509999Y-112290000D02*
X194509999Y-108749999D01*
X229500000Y-74700000D02*
X228850000Y-74050000D01*
X194509999Y-108749999D02*
X194160000Y-108400000D01*
X189644998Y-105644998D02*
X189644998Y-104075000D01*
X194600000Y-123000000D02*
X226923599Y-123000000D01*
X193700000Y-74050000D02*
X228850000Y-74050000D01*
%TO.N,/MOSI*%
X216000000Y-110600000D02*
X216000000Y-101100000D01*
X211100000Y-75900000D02*
X196700000Y-75900000D01*
X220100000Y-97000000D02*
X220100000Y-83900000D01*
X216000000Y-101100000D02*
X220100000Y-97000000D01*
X220100000Y-83900000D02*
X215400000Y-79200000D01*
X196700000Y-75900000D02*
X196150000Y-75350000D01*
X196150000Y-75350000D02*
X193700000Y-75350000D01*
X186889999Y-115600000D02*
X186889999Y-116189999D01*
X186889999Y-116189999D02*
X188700000Y-118000000D01*
X186889999Y-111089999D02*
X186539999Y-110739999D01*
X211400000Y-79200000D02*
X211200000Y-79000000D01*
X186539999Y-110739999D02*
X186539999Y-108400000D01*
X188700000Y-118000000D02*
X208600000Y-118000000D01*
X211200000Y-79000000D02*
X211200000Y-78800000D01*
X208600000Y-118000000D02*
X216000000Y-110600000D01*
X215400000Y-79200000D02*
X211400000Y-79200000D01*
X211200000Y-78800000D02*
X211100000Y-78700000D01*
X186889999Y-115600000D02*
X186889999Y-111089999D01*
%TO.N,Net-(JP1-B)*%
X167800000Y-117100000D02*
X167100000Y-117100000D01*
X223800000Y-105825000D02*
X223800000Y-118800000D01*
X162740000Y-110840000D02*
X167100000Y-110840000D01*
X167800000Y-119700000D02*
X167800000Y-117100000D01*
X162200000Y-110800000D02*
X162700000Y-110800000D01*
X162700000Y-110800000D02*
X162740000Y-110840000D01*
X161500000Y-111500000D02*
X162200000Y-110800000D01*
X167100000Y-117100000D02*
X161500000Y-111500000D01*
X221800000Y-120800000D02*
X168900000Y-120800000D01*
X168900000Y-120800000D02*
X167800000Y-119700000D01*
X221800000Y-120800000D02*
X223800000Y-118800000D01*
%TO.N,Net-(Q1-G)*%
X161294999Y-88575001D02*
X163419999Y-86450001D01*
X161294998Y-88600001D02*
X161294999Y-88575001D01*
X163419999Y-86450001D02*
X163419999Y-83662501D01*
X162469999Y-91775001D02*
X162469999Y-91200001D01*
X162469999Y-91200001D02*
X161294998Y-90025001D01*
X161294998Y-90025001D02*
X161294998Y-88600001D01*
D28*
%TO.N,VCC*%
X162094000Y-81923800D02*
X164893798Y-81923800D01*
X161519999Y-83662501D02*
X161519999Y-82497801D01*
X189519999Y-82850001D02*
X190369999Y-82000001D01*
X200569999Y-81500001D02*
X200569999Y-87600001D01*
X204290000Y-112290000D02*
X203600000Y-111600000D01*
X161519999Y-82497801D02*
X162094000Y-81923800D01*
X187469998Y-88600001D02*
X187644999Y-88600001D01*
X202470000Y-84700001D02*
X202482498Y-84700001D01*
X181670000Y-85300001D02*
X182519999Y-84450001D01*
X190369999Y-82000001D02*
X193769999Y-82000001D01*
X201644999Y-88600001D02*
X201669999Y-88600001D01*
X194644999Y-88600000D02*
X194644999Y-88525000D01*
X159644999Y-85537501D02*
X161519999Y-83662501D01*
X196519999Y-83662501D02*
X196519999Y-82750001D01*
X207569999Y-81900001D02*
X207569999Y-87800001D01*
X173569999Y-88600001D02*
X173644999Y-88600001D01*
X180644999Y-88600000D02*
X180769999Y-88600001D01*
X175519999Y-86150001D02*
X175519999Y-83662501D01*
X195869999Y-87300001D02*
X195869999Y-84312501D01*
X201569999Y-88600001D02*
X201644999Y-88600001D01*
X181669999Y-87700001D02*
X181670000Y-85300001D01*
X182519999Y-82550001D02*
X182921079Y-82148921D01*
X166644999Y-87825001D02*
X168519999Y-85950001D01*
X176369999Y-81700001D02*
X178169999Y-81700001D01*
X188269999Y-84900001D02*
X188769999Y-84400001D01*
X168519999Y-85950001D02*
X168519999Y-83662501D01*
X171369999Y-82100001D02*
X171869999Y-82600001D01*
X202470000Y-87800001D02*
X202470000Y-84700001D01*
X203519999Y-82550001D02*
X204369999Y-81700001D01*
X175519999Y-83662501D02*
X175519999Y-82550001D01*
X216169999Y-82900001D02*
X216169999Y-96550001D01*
X210519999Y-83662501D02*
X210519999Y-82050001D01*
X207569999Y-87800001D02*
X208369999Y-88600001D01*
X197769999Y-81500001D02*
X200569999Y-81500001D01*
X188269999Y-88100001D02*
X188269999Y-84900001D01*
X203600000Y-111600000D02*
X203600000Y-109120000D01*
X210519999Y-82050001D02*
X210769999Y-81800001D01*
X208644999Y-88425001D02*
X209569999Y-87500001D01*
X193769999Y-87700001D02*
X194644999Y-88575001D01*
X166644999Y-83675001D02*
X166644999Y-88600001D01*
X180769999Y-88600001D02*
X181669999Y-87700001D01*
X179869999Y-83400001D02*
X179869999Y-87825001D01*
X209569999Y-87500001D02*
X209569999Y-84612501D01*
X203600000Y-109120000D02*
X204320000Y-108400000D01*
X203519999Y-83662501D02*
X203519999Y-82550001D01*
X196519999Y-82750001D02*
X197769999Y-81500001D01*
X168519999Y-83662501D02*
X168519999Y-82450001D01*
X208369999Y-88600001D02*
X208644999Y-88600000D01*
X174269999Y-87400001D02*
X175519999Y-86150001D01*
X202482498Y-84700001D02*
X203519999Y-83662501D01*
X188782499Y-84400000D02*
X189519999Y-83662501D01*
X159644999Y-88600001D02*
X159644999Y-85537501D01*
X187769999Y-88600000D02*
X188269999Y-88100001D01*
X204369999Y-81700001D02*
X207369999Y-81700001D01*
X182519999Y-84450001D02*
X182519999Y-83662501D01*
X178169999Y-81700001D02*
X179869999Y-83400001D01*
X179869999Y-87825001D02*
X180644999Y-88600000D01*
X171869999Y-86900001D02*
X173569999Y-88600001D01*
X186869999Y-83300001D02*
X186869999Y-88000001D01*
X215069999Y-81800001D02*
X216169999Y-82900001D01*
X182519999Y-83662501D02*
X182519999Y-82550001D01*
X216169999Y-96550001D02*
X204320000Y-108400000D01*
X174269999Y-87975001D02*
X174269999Y-87400001D01*
X168869999Y-82100001D02*
X171369999Y-82100001D01*
X164893798Y-81923800D02*
X166644999Y-83675001D01*
X207369999Y-81700001D02*
X207569999Y-81900001D01*
X193769999Y-82000001D02*
X193769999Y-87700001D01*
X166644999Y-88600001D02*
X166644999Y-87825001D01*
X209569999Y-84612501D02*
X210519999Y-83662501D01*
X187644999Y-88600001D02*
X187769999Y-88600000D01*
X194644999Y-88525000D02*
X195869999Y-87300001D01*
X175519999Y-82550001D02*
X176369999Y-81700001D01*
X189519999Y-83662501D02*
X189519999Y-82850001D01*
X188769999Y-84400001D02*
X188782499Y-84400000D01*
X204669999Y-112290000D02*
X204290000Y-112290000D01*
X182921079Y-82148921D02*
X185718919Y-82148921D01*
X194644999Y-88575001D02*
X194644999Y-88600000D01*
X195869999Y-84312501D02*
X196519999Y-83662501D01*
X171869999Y-82600001D02*
X171869999Y-86900001D01*
X200569999Y-87600001D02*
X201569999Y-88600001D01*
X201669999Y-88600001D02*
X202470000Y-87800001D01*
X185718919Y-82148921D02*
X186869999Y-83300001D01*
X210769999Y-81800001D02*
X215069999Y-81800001D01*
X173644999Y-88600001D02*
X174269999Y-87975001D01*
X208644999Y-88600000D02*
X208644999Y-88425001D01*
X168519999Y-82450001D02*
X168869999Y-82100001D01*
X186869999Y-88000001D02*
X187469998Y-88600001D01*
D29*
%TO.N,Net-(Q2-G)*%
X170419999Y-83662501D02*
X170419999Y-86475001D01*
X168294999Y-90425001D02*
X168294999Y-88600001D01*
X170419999Y-86475001D02*
X168294999Y-88600001D01*
X169469999Y-91775001D02*
X169469999Y-91600001D01*
X169469999Y-91600001D02*
X168294999Y-90425001D01*
%TO.N,Net-(Q3-G)*%
X175294999Y-88375001D02*
X175294999Y-88600001D01*
X175294999Y-90600001D02*
X176469999Y-91775001D01*
X177419999Y-83662501D02*
X177419999Y-86250001D01*
X175294999Y-88600001D02*
X175294999Y-90600001D01*
X177419999Y-86250001D02*
X175294999Y-88375001D01*
%TO.N,Net-(Q4-G)*%
X182294999Y-90600001D02*
X183469999Y-91775001D01*
X182341799Y-88600001D02*
X182294999Y-88600001D01*
X184419999Y-83662501D02*
X184419999Y-86521801D01*
X184419999Y-86521801D02*
X182341799Y-88600001D01*
X182294999Y-88600001D02*
X182294999Y-90600001D01*
%TO.N,Net-(Q5-G)*%
X191419999Y-83662501D02*
X191419999Y-86450001D01*
X191419999Y-86450001D02*
X189294999Y-88575001D01*
X189294999Y-88600001D02*
X189294999Y-90600001D01*
X189294999Y-90600001D02*
X190469999Y-91775001D01*
X189294999Y-88575001D02*
X189294999Y-88600001D01*
%TO.N,Net-(Q6-G)*%
X196294999Y-88275001D02*
X196294999Y-88600001D01*
X198419999Y-86150001D02*
X196294999Y-88275001D01*
X196294999Y-90600001D02*
X197469999Y-91775001D01*
X196294999Y-88600001D02*
X196294999Y-90600001D01*
X198419999Y-83662501D02*
X198419999Y-86150001D01*
%TO.N,Net-(Q7-G)*%
X203294999Y-88375001D02*
X203294999Y-88600001D01*
X205419999Y-83662501D02*
X205419999Y-86250001D01*
X203294999Y-90600001D02*
X204469999Y-91775001D01*
X205419999Y-86250001D02*
X203294999Y-88375001D01*
X203294999Y-88600001D02*
X203294999Y-90600001D01*
%TO.N,Net-(Q8-G)*%
X212419999Y-83662501D02*
X212419999Y-86350001D01*
X210294999Y-88600001D02*
X210294999Y-90600001D01*
X212419999Y-86350001D02*
X210294999Y-88475001D01*
X210294999Y-90600001D02*
X211469999Y-91775001D01*
X210294999Y-88475001D02*
X210294999Y-88600001D01*
%TO.N,/~{OUT15}*%
X189700000Y-95405001D02*
X189700000Y-95400000D01*
X190294999Y-96000000D02*
X189700000Y-95405001D01*
X189000000Y-94700000D02*
X167200000Y-94700000D01*
X190294999Y-98325000D02*
X190294999Y-96000000D01*
X167200000Y-94700000D02*
X164300000Y-91800000D01*
X189700000Y-95400000D02*
X189000000Y-94700000D01*
%TO.N,/~{OUT14}*%
X190944999Y-98325000D02*
X190944999Y-96444999D01*
X179200000Y-93800000D02*
X173300000Y-93800000D01*
X189000000Y-93800000D02*
X190944999Y-95744999D01*
X179200000Y-93800000D02*
X189000000Y-93800000D01*
X190944999Y-95744999D02*
X190944999Y-96444999D01*
X173300000Y-93800000D02*
X171300000Y-91800000D01*
%TO.N,/~{OUT13}*%
X181700000Y-93100000D02*
X180400000Y-91800000D01*
X191600000Y-95800000D02*
X188900000Y-93100000D01*
X191600000Y-97200000D02*
X191600000Y-95800000D01*
X188900000Y-93100000D02*
X181700000Y-93100000D01*
X191594999Y-98325000D02*
X191594999Y-97205001D01*
X180400000Y-91800000D02*
X178300000Y-91800000D01*
X191594999Y-97205001D02*
X191600000Y-97200000D01*
%TO.N,/~{OUT12}*%
X188200000Y-91700000D02*
X185300000Y-91700000D01*
X192244999Y-95744999D02*
X188200000Y-91700000D01*
X192244999Y-98325000D02*
X192244999Y-95744999D01*
%TO.N,/~{OUT11}*%
X192895000Y-98325000D02*
X192895000Y-97550001D01*
X192669999Y-97325000D02*
X192669999Y-92044999D01*
X192669999Y-92044999D02*
X192325000Y-91700000D01*
X192895000Y-97550001D02*
X192669999Y-97325000D01*
%TO.N,/~{OUT10}*%
X199400000Y-91700000D02*
X197674999Y-93425001D01*
X197674999Y-93425001D02*
X195545000Y-93425001D01*
X193544999Y-98325001D02*
X193544999Y-95425001D01*
X193544999Y-95425001D02*
X195545000Y-93425001D01*
%TO.N,/~{OUT9}*%
X195869999Y-95500001D02*
X194194999Y-97175001D01*
X194194999Y-97175001D02*
X194194999Y-98325000D01*
X202599999Y-95500001D02*
X195869999Y-95500001D01*
X206400000Y-91700000D02*
X202599999Y-95500001D01*
%TO.N,/~{OUT8}*%
X213425000Y-91800000D02*
X206899999Y-98325001D01*
X206899999Y-98325001D02*
X194844999Y-98325001D01*
%TO.N,/REXT1*%
X167500000Y-102850000D02*
X167500000Y-101500000D01*
X169900000Y-113800000D02*
X169800000Y-113700000D01*
X168550000Y-115450000D02*
X169900000Y-114100000D01*
X187500000Y-100200000D02*
X188344999Y-99355001D01*
X188344999Y-99355001D02*
X188344999Y-98325000D01*
X169900000Y-114100000D02*
X169900000Y-113800000D01*
X183800000Y-102800000D02*
X185800000Y-102800000D01*
X187500000Y-101100000D02*
X187500000Y-100200000D01*
X185800000Y-102800000D02*
X187500000Y-101100000D01*
X169800000Y-104000000D02*
X168650000Y-104000000D01*
X168650000Y-104000000D02*
X167500000Y-102850000D01*
X169800000Y-113700000D02*
X169800000Y-104000000D01*
X167800000Y-115450000D02*
X168550000Y-115450000D01*
%TO.N,/REXT2*%
X226000000Y-100800000D02*
X226000000Y-79600000D01*
X199222183Y-77000000D02*
X191000000Y-77000000D01*
X199522183Y-76700000D02*
X199222183Y-77000000D01*
X223100000Y-76700000D02*
X199522183Y-76700000D01*
X191000000Y-77000000D02*
X189350000Y-75350000D01*
X223800000Y-104175000D02*
X223800000Y-103000000D01*
X189350000Y-75350000D02*
X187950000Y-75350000D01*
X223800000Y-103000000D02*
X226000000Y-100800000D01*
X226000000Y-79600000D02*
X223100000Y-76700000D01*
%TO.N,Net-(U1-SDI)*%
X156200000Y-100200000D02*
X170800000Y-100200000D01*
X170800000Y-104000000D02*
X171400000Y-104600000D01*
X179000000Y-68600000D02*
X178200000Y-68600000D01*
X188344999Y-104849999D02*
X186994998Y-106200000D01*
X184500000Y-74700000D02*
X187950000Y-74700000D01*
X186994998Y-106200000D02*
X184600000Y-106200000D01*
X188344999Y-104075000D02*
X188344999Y-104849999D01*
X180400000Y-70000000D02*
X179000000Y-68600000D01*
X170800000Y-100200000D02*
X170800000Y-104000000D01*
X155450000Y-83250000D02*
X155450000Y-99450000D01*
X184600000Y-106200000D02*
X184000000Y-105600000D01*
X184000000Y-104600000D02*
X183200000Y-104600000D01*
X179200000Y-104600000D02*
X175000000Y-104600000D01*
X184000000Y-105600000D02*
X184000000Y-104600000D01*
X183400000Y-75800000D02*
X184500000Y-74700000D01*
X155450000Y-99450000D02*
X156200000Y-100200000D01*
%TD*%
M02*
